#N canvas 770 104 935 750 10;
#X declare -path SOPI;
#X declare -path INSTR;
#X declare -path ../granular;
#X declare -path ../samples;
#X declare -path SOPI;
#X declare -path INSTR;
#X declare -path ../granular;
#X declare -path ../samples;
#X declare -path SOPI;
#X declare -path INSTR;
#X declare -path ../granular;
#X declare -path ../samples;
#X declare -path SOPIInstr;
#X declare -path SOPIUtl;
#X declare -lib iemgui -lib vbap -lib iemlib -lib oscx;
#X obj 9 214 cnv 15 900 150 empty empty connection_and_sound_module_routing
20 12 0 14 -233017 -66577 0;
#X obj 9 55 cnv 15 600 150 empty empty networking 20 12 0 14 -233017
-66577 0;
#X obj 8 6 cnv 15 600 40 empty empty PESI_System_InSpace 6 20 0 24
-233017 -66577 0;
#X obj 614 6 cnv 15 300 40 empty empty SOPI_research_group_2013 20
10 0 12 -233017 -66577 0;
#X obj 8 372 cnv 15 900 150 empty empty mapping_synthesis 20 12 0 14
-233017 -66577 0;
#X obj 7 529 cnv 15 600 210 empty empty audio_output 20 12 0 14 -233017
-66577 0;
#X obj 614 55 cnv 15 300 150 empty empty empty 20 12 0 14 -228856 -66577
0;
#X obj 614 529 cnv 15 300 210 empty empty PESI_Research_Project 20
50 0 18 -162280 -66577 0;
#X obj 23 86 networkingModule;
#X obj 204 559 audioOutputModule;
#X obj 23 404 MappingSynthesis1;
#X obj 317 404 MappingSynthesis2;
#X obj 613 404 MappingSynthesis3;
#X obj 614 25 cnv 15 300 20 empty empty http://sopi.media.taik.fi 20
10 0 12 -233017 -66577 0;
#X obj 614 607 cnv 15 300 50 empty empty The_Notion_of_Participative_and
20 10 0 12 -162280 -66577 0;
#X obj 614 625 cnv 15 300 50 empty empty Enacting_Sonic_Interaction_PESI
20 10 0 12 -162280 -66577 0;
#X obj 614 652 cnv 15 300 20 empty empty Academy_of_Finland_pr.137646
20 10 0 12 -162280 -66577 0;
#X obj 619 83 declare -path SOPIInstr;
#X obj 614 680 cnv 15 300 20 empty empty http://sopi.media.taik.fi/research/pesi/
20 10 0 12 -162280 -66577 0;
#X obj 614 698 cnv 15 300 20 empty empty https://github.com/SopiMlab
20 10 0 12 -162280 -66577 0;
#X obj 620 62 declare -path SOPIUtl;
#X obj 317 248 ConnectionControl 5;
#X obj 23 248 ConnectionControl 4;
#X obj 613 247 ConnectionControl 6;
#N canvas 834 292 450 300 README_libs 0;
#X text 34 101 It is recommended to use the current version of Pd-extended
;
#X text 35 47 Make sure that you import the followign libraries in
Pd \; iemlib eimgui \, vbap \, OSC;
#X obj 37 5 import iemgui vbap iemlib oscx;
#X restore 620 108 pd README_libs;
#N canvas 734 264 450 300 README 0;
#X text 16 15 The in-space component implements a Kinect motion track-
ing module that constantly computes the spatial position of the three
performers and extracts information about their relations \, such as
relative distances \, velocity \, acceleration and alignment;
#X text 16 100 The tracking module avoids the loss of tracked players
due to occlusions or abrupt move- ments. The in-space component is
conditioned by the crit- ical requirements of three-musicians performing
in a group improvisation. The modular structure of the motion track-
ing module enables us to add several kinects to the system for a reliable
tracking. In its current system structure with three musicians performing
\, we implemented the tracking system with two Kinects.;
#X restore 623 141 pd README;
#X connect 10 0 9 0;
#X connect 10 1 9 1;
#X connect 10 2 9 2;
#X connect 11 0 9 3;
#X connect 11 3 9 4;
#X connect 11 4 9 5;
#X connect 12 0 9 6;
#X connect 12 5 9 7;
#X connect 12 6 9 8;
#X connect 21 0 11 0;
#X connect 21 1 11 1;
#X connect 21 2 11 2;
#X connect 21 3 11 3;
#X connect 21 4 11 4;
#X connect 21 5 11 5;
#X connect 21 6 11 6;
#X connect 21 7 11 7;
#X connect 22 1 10 1;
#X connect 22 2 10 2;
#X connect 22 3 10 3;
#X connect 22 4 10 4;
#X connect 22 5 10 5;
#X connect 22 6 10 6;
#X connect 22 7 10 7;
#X connect 23 0 12 0;
#X connect 23 1 12 1;
#X connect 23 2 12 2;
#X connect 23 3 12 3;
#X connect 23 4 12 4;
#X connect 23 5 12 5;
#X connect 23 6 12 6;
#X connect 23 7 12 7;
