#N canvas 196 583 1135 584 10;
#X obj 153 220 cnv 15 200 300 empty empty connection 20 12 0 14 -233017
-66577 0;
#X obj 278 -38 cnv 15 780 250 empty empty receive_from_iphone_and_kinect
20 12 0 14 -233017 -66577 0;
#X obj -53 -38 cnv 15 325 250 empty empty GUI 20 12 0 14 -233017 -66577
0;
#N canvas 26 329 587 207 init 0;
#X msg 48 131 169;
#X msg 108 131 254;
#X obj 48 160 s \$0-IP1r;
#X obj 108 160 s \$0-IP2r;
#X obj 298 158 s \$0-IPportr;
#X obj 385 145 bng 30 250 50 0 \$0-loadbang empty empty 17 7 0 12 -262144
-1 -1;
#X obj 48 32 loadbang;
#X obj 169 160 s \$0-IP3r;
#X obj 229 160 s \$0-IP4r;
#X msg 169 131 0;
#X obj 229 114 f \$1;
#X msg 298 131 11000;
#X text 189 20 pd init dispays the IP and port numbers of the connected
mobile phones;
#X connect 0 0 2 0;
#X connect 1 0 3 0;
#X connect 6 0 0 0;
#X connect 6 0 1 0;
#X connect 6 0 11 0;
#X connect 6 0 5 0;
#X connect 6 0 9 0;
#X connect 6 0 10 0;
#X connect 9 0 7 0;
#X connect 10 0 8 0;
#X connect 11 0 4 0;
#X restore 108 -34 pd init;
#X obj -54 220 cnv 15 200 300 empty empty send_to_mobile 20 12 0 14
-233017 -66577 0;
#X obj 358 220 cnv 15 700 300 empty empty sound_module_routing 20 12
0 14 -233017 -66577 0;
#X obj 201 55 bng 38 250 50 0 empty \$0-colourSelect_receive Mobile_Data
-24 47 0 10 -166441 -166441 -166441;
#X msg 269 358 disconnect;
#X floatatom 280 411 5 0 0 0 - - -;
#X obj 196 407 oscx/sendOSC;
#X floatatom -36 348 5 0 0 0 - - -;
#X obj 446 33 Acc_SensorParsing;
#X obj 590 73 Gyro_SensorParsing;
#X obj 446 12 route \$1;
#X obj 590 52 route \$1;
#X floatatom 63 90 5 0 254 0 - #0-IP3r #0-IP3;
#X floatatom 95 90 5 0 254 0 - #0-IP4r #0-IP4;
#X floatatom 139 90 5 9840 9900 0 : #0-IPportr #0-IPport;
#X floatatom 31 90 5 0 254 0 - #0-IP2r #0-IP2;
#X floatatom -2 90 5 0 254 0 - #0-IP1r #0-IP1;
#X obj 196 335 pack f f f f f f;
#X msg 196 378 connect \$2.\$3.\$4.\$5 \$6;
#X obj 233 291 r \$0-IP2;
#X obj 214 311 r \$0-IP1;
#X obj 251 271 r \$0-IP3;
#X obj 270 251 r \$0-IP4;
#X obj 269 312 r \$0-IPport;
#X obj 196 358 t b b a b b;
#X obj 285 13 route \$1;
#X obj 285 74 s \$0-colourSelect_receive;
#X obj -36 29 tgl 30 0 \$0-connection empty To_Mobile__/_ 0 37 0 12
-262144 -1 -1 0 1;
#X obj 197 494 s \$0-connection_status;
#X obj 197 434 sel 0 1;
#X msg 216 475 label connected;
#X msg 197 456 label disconnected;
#X msg 285 54 bang;
#X obj 59 53 cnv 15 1 1 empty \$0-connection_status disconnected 20
12 0 12 -228856 -66577 0;
#X obj 172 252 r \$0-connection;
#X obj 173 279 sel 0 1;
#X obj 57 28 cnv 15 1 1 empty \$0-mobileDNUM MOBILE_ID:__ 20 12 0 16
-228856 -66577 0;
#X obj 10 348 r MOBSPEEDLIM;
#X obj -36 369 speedlim;
#X obj 706 53 route \$1;
#X obj 706 73 Touch_SensorParsing;
#X obj 568 263 outlet;
#X obj 611 263 outlet;
#X obj 654 263 outlet;
#X obj 921 283 outlet;
#X obj 445 54 s \$0-colourSelect_send;
#X obj -35 301 metro 300;
#X obj -35 91 tgl 15 0 empty empty pingMobile 0 -8 0 8 -262144 -1 -1
0 1;
#X obj 928 263 outlet;
#X obj 246 435 loadbang;
#X obj 590 237 route 1 2 3;
#X obj 948 243 outlet;
#X obj 959 224 outlet;
#X obj 921 55 Distance_SensorParsing;
#X msg -36 391 send /ping \$1;
#X msg -35 323 0;
#X obj 828 53 route \$1;
#X obj 828 74 Tuning_Parsing;
#X obj 285 -8 r mpoing_pesi;
#X obj 446 -9 r acc_pesi;
#X obj 590 31 r gyro_pesi;
#X obj 706 31 r touch_pesi;
#X obj 921 31 r distances_pesi;
#X obj 948 157 r speed_pesi;
#X obj 959 180 r behaviour_pesi;
#X obj 828 31 r tuning_pesi;
#X text 677 -24 ConnectionControl patch receives data from mobiles
and kinect server \, further it parses \, routes and streams data to
the PESI System InSpace instruments;
#X text -52 418 other OSC tags can be used to send;
#X text -53 431 messages to mobiles \, same tags should;
#X text -53 458 and in _PESI.pd patch in;
#X text -54 472 PESI_OnBody system.;
#X text 284 101 mobile phone ID;
#X text 358 293 accelerometer \, gyroscope \, touch and tuning values
are routed to the selected instruments. The tag order of each input
before the route object:;
#X text 359 352 acc: instrument ID(int) accelx(f) accely(f) accelz(f)
;
#X text 359 366 gryro: instrument ID(int) gyrox(f) gyroy(f) gyroz(f)
;
#X text 359 382 touch: instrument ID(int) touchIO(int) touchx(f) touchx(f)
;
#X text 360 452 acc data range: -1 - 1;
#X text 360 463 gyro data range: -1 - 1;
#X text 360 476 touch data range: x (0 - 320) y (0 - 480);
#X text 358 398 tuning: instrument ID(int) tune1x(f) tune1y(f) tune2x(f)
tune3y(f) tune3x(f) tune3y(f) tune4x(f) tune4y(f);
#X text 360 489 tuning data range: x (0 - 320) y (0 - 480);
#X text 359 427 distance: d1(f) d2(f) d3(f);
#X text 360 503 distance: 0 - 5000 mm;
#X obj 928 135 r azimuth_pesi;
#X text 730 296 azimuth_pesi;
#X text 731 308 azimuth angle values shows the direction of the perfomer
referenced to the speaker positions in the space. First value is the
angle (-180 - 180) \, second value is the distance between the performer
and the speaker (mm).;
#X text 730 381 velocity values based on the deltaPosition of each
performer in the space;
#X text 730 367 speed_pesi;
#X text 729 431 extracted social behaviour \; cohesion 1 seperation
-1 wander 0;
#X text 729 419 behaviour_pesi;
#X text 730 467 distance;
#X text 730 480 d1: distance between performer 1 and performer 2;
#X text 730 491 d2: distance between performer 2 and performer 3;
#X text 730 504 d3: distance between performer 1 and performer 3;
#X text -52 113 The IP address in Mobile phones WI-FI settings should
be set in static menu to the above address 169.254... and Subnet Mask
to 255.255.0.0;
#X text -54 445 be created in SOPImobile.xcodeproj;
#N canvas 200 107 393 296 smodulecolor 0;
#X obj 55 4 r \$0-colourSelect_send;
#X obj 48 209 s \$0-colourSelect_receive;
#X msg 121 179 color 1 1 1;
#X obj 121 157 loadbang;
#X obj 49 66 sel 1 2 3;
#X obj 59 37 change;
#X msg 48 91 color 13 12 12;
#X msg 57 114 color 16 12 12;
#X msg 72 135 color 18 1 12;
#X text 24 244 pd soundmodulecolor sets the color of the bang gui which
indicates the color for the selected sound module on mobile phone and
connectiong statues.;
#X connect 0 0 5 0;
#X connect 2 0 1 0;
#X connect 3 0 2 0;
#X connect 4 0 6 0;
#X connect 4 1 7 0;
#X connect 4 2 8 0;
#X connect 5 0 4 0;
#X connect 6 0 1 0;
#X connect 7 0 1 0;
#X connect 8 0 1 0;
#X restore 6 -34 pd smodulecolor;
#X text -52 165 PESI system InSpace connects to the mobiles through
To_Mobile__/_ Toogle box and sends OSC messages to the mobiles as below
send_to_mobile and connection sections;
#X text -42 -9 click on the toogle box and connect to the mobiles;
#X text 386 246 mobile phone ID;
#X obj 446 263 outlet mobileID;
#N canvas 797 586 450 300 mobileID 1;
#X obj 130 44 inlet;
#X obj 131 79 sel 1 2 3;
#X obj 121 -6 loadbang;
#X text 117 240 instrID shows the selected instruments ID on the _masterController
patch;
#X msg 121 20 label MOBILE_ID:__;
#X msg 128 114 label MOBILE_ID:_1;
#X msg 134 142 label MOBILE_ID:_2;
#X msg 139 167 label MOBILE_ID:_3;
#X obj 117 214 s \$0-mobileIDNUM;
#X connect 0 0 1 0;
#X connect 1 0 5 0;
#X connect 1 1 6 0;
#X connect 1 2 7 0;
#X connect 2 0 4 0;
#X connect 4 0 8 0;
#X connect 5 0 8 0;
#X connect 6 0 8 0;
#X connect 7 0 8 0;
#X restore 445 74 pd mobileID;
#X connect 7 0 9 0;
#X connect 9 0 32 0;
#X connect 9 1 8 0;
#X connect 10 0 41 0;
#X connect 11 0 48 0;
#X connect 11 0 104 0;
#X connect 11 0 103 0;
#X connect 11 1 53 0;
#X connect 12 0 53 0;
#X connect 13 0 11 0;
#X connect 14 0 12 0;
#X connect 20 0 27 0;
#X connect 21 0 9 0;
#X connect 22 0 20 2;
#X connect 23 0 20 1;
#X connect 24 0 20 3;
#X connect 25 0 20 4;
#X connect 26 0 20 5;
#X connect 27 2 21 0;
#X connect 27 4 7 0;
#X connect 28 0 35 0;
#X connect 32 0 34 0;
#X connect 32 1 33 0;
#X connect 33 0 31 0;
#X connect 34 0 31 0;
#X connect 35 0 29 0;
#X connect 37 0 38 0;
#X connect 38 0 7 0;
#X connect 38 1 20 0;
#X connect 40 0 41 1;
#X connect 41 0 57 0;
#X connect 42 0 43 0;
#X connect 43 0 53 0;
#X connect 49 0 58 0;
#X connect 50 0 49 0;
#X connect 52 0 34 0;
#X connect 53 0 44 0;
#X connect 53 1 45 0;
#X connect 53 2 46 0;
#X connect 56 0 47 0;
#X connect 57 0 9 0;
#X connect 58 0 41 0;
#X connect 59 0 60 0;
#X connect 60 0 53 0;
#X connect 61 0 28 0;
#X connect 62 0 13 0;
#X connect 63 0 14 0;
#X connect 64 0 42 0;
#X connect 65 0 56 0;
#X connect 66 0 54 0;
#X connect 67 0 55 0;
#X connect 68 0 59 0;
#X connect 86 0 51 0;
#X coords 0 -1 1 1 285 100 1 -42 10;
