#N canvas 67 112 1168 583 10;
#X obj 285 -44 cnv 15 800 250 empty empty mapping 20 12 0 14 -233017
-66577 0;
#X obj -39 -44 cnv 15 320 250 empty empty GUI 20 12 0 14 -233017 -66577
0;
#X obj 282 212 cnv 15 800 300 empty empty synthesis 20 12 0 14 -233017
-66577 0;
#X obj 4 37 cnv 15 250 24 empty \$0-instrNAME _PESI_AsyncGranular 20
12 0 16 -62784 -262144 0;
#X obj -18 118 inlet instrumentID;
#X obj 681 -1 route d1 d2 d3;
#N canvas 360 22 450 300 instrNAME 0;
#X obj 130 44 inlet;
#X obj 134 68 sel 1 2 3;
#X obj 288 67 loadbang;
#X obj 117 214 s \$0-instrNAME;
#X msg 162 143 label _PESI_4point_WaveSynth;
#X msg 235 185 label _PESI_AsyncGranular;
#X text 14 18 18;
#X text 26 42 13;
#X msg 296 114 color 1 0 0;
#X msg 12 69 color 13 0 0;
#X msg 60 138 color 16 0 0;
#X msg 11 217 color 18 0 0;
#X msg 99 101 label PESI_onbody_TestTone;
#X msg 288 93 label SOUND_MODULE_NAME;
#X connect 0 0 1 0;
#X connect 1 0 12 0;
#X connect 1 0 9 0;
#X connect 1 1 4 0;
#X connect 1 1 10 0;
#X connect 1 2 5 0;
#X connect 1 2 11 0;
#X connect 2 0 13 0;
#X connect 2 0 8 0;
#X connect 4 0 3 0;
#X connect 5 0 3 0;
#X connect 8 0 3 0;
#X connect 9 0 3 0;
#X connect 10 0 3 0;
#X connect 11 0 3 0;
#X connect 12 0 3 0;
#X connect 13 0 3 0;
#X restore -18 182 pd instrNAME;
#N canvas 436 385 542 308 positionScale 0;
#X obj -328 29 inlet;
#X obj -327 82 outlet;
#X obj -282 79 inlet;
#X obj -284 137 outlet;
#X obj -170 25 inlet;
#X obj -169 78 outlet;
#X obj -124 75 inlet;
#X obj -126 133 outlet;
#X obj -2 30 inlet;
#X obj -1 83 outlet;
#X obj 44 80 inlet;
#X obj 42 138 outlet;
#X obj -282 110 sopiscale 1 100 0 1500;
#X obj -124 106 sopiscale 1 100 0 1500;
#X obj 44 111 sopiscale 1 100 0 1500;
#X connect 0 0 1 0;
#X connect 2 0 12 0;
#X connect 4 0 5 0;
#X connect 6 0 13 0;
#X connect 8 0 9 0;
#X connect 10 0 14 0;
#X connect 12 0 3 0;
#X connect 13 0 7 0;
#X connect 14 0 11 0;
#X restore 792 22 pd positionScale;
#X obj 792 -1 unpack f f f f f f;
#X obj 763 250 outlet ang1;
#X obj 790 271 outlet spr1;
#X obj 813 225 outlet ang2;
#X obj 891 271 outlet ang3;
#X obj 839 245 outlet spr2;
#X obj 915 247 outlet spr3;
#X obj 287 -19 inlet sensorsInstD1;
#X obj 554 -21 inlet sensorsInstD3;
#X obj 681 -21 inlet distances;
#X obj 1007 -21 inlet behaviours;
#X obj 419 -19 inlet sensorsInstD2;
#X obj 426 458 outlet~;
#X floatatom -5 146 5 0 0 0 - - #0-InId;
#N canvas 290 47 474 275 distancescale 0;
#X obj 34 42 inlet;
#X obj 34 103 outlet;
#X obj 192 42 inlet;
#X obj 192 103 outlet;
#X obj 326 41 inlet;
#X obj 326 102 outlet;
#X obj 34 77 sopiscale 0 1 500 4000;
#X obj 192 77 sopiscale 0 1 500 4000;
#X obj 326 74 sopiscale 0 1 500 4000;
#X connect 0 0 6 0;
#X connect 2 0 7 0;
#X connect 4 0 8 0;
#X connect 6 0 1 0;
#X connect 7 0 3 0;
#X connect 8 0 5 0;
#X restore 673 30 pd distancescale;
#X obj 915 -22 inlet speed;
#N canvas 533 402 474 275 speedsscale 0;
#X obj 163 -24 inlet;
#X obj 59 196 outlet;
#X obj 192 160 outlet;
#X obj 327 171 outlet;
#X obj 167 13 unpack f f f;
#X obj 60 78 sopiscale 0.5 2 0 100;
#X obj 192 77 sopiscale 0.5 2 0 100;
#X obj 326 76 sopiscale 0.5 2 0 100;
#X connect 0 0 4 0;
#X connect 4 0 5 0;
#X connect 4 1 6 0;
#X connect 4 2 7 0;
#X connect 5 0 1 0;
#X connect 6 0 2 0;
#X connect 7 0 3 0;
#X restore 915 0 pd speedsscale;
#X obj 792 -22 inlet azimuth;
#X obj 318 22 r \$0-InId;
#X obj 456 21 r \$0-InId;
#X obj 590 19 r \$0-InId;
#X obj 998 264 outlet;
#X obj 419 310 _PESI_Green_onbody;
#X obj 286 312 _PESI_Red_onbody;
#X text -33 244 When the performer chooses one of the sound modules
in the mobile instrument \, that particular sound module is also activated
in the in-space component and produces the audio signals to be processed
further.;
#X text 707 382 The overall audio synthesis design is aimed for creating
a layer of sound cloud that is identical to the individual mobile instrument.
;
#X obj 552 311 _PESI_Blue_onbody;
#X connect 4 0 6 0;
#X connect 4 0 21 0;
#X connect 5 0 22 0;
#X connect 5 1 22 1;
#X connect 5 2 22 2;
#X connect 7 0 9 0;
#X connect 7 1 10 0;
#X connect 7 2 11 0;
#X connect 7 3 13 0;
#X connect 7 4 12 0;
#X connect 7 5 14 0;
#X connect 8 0 7 0;
#X connect 8 1 7 1;
#X connect 8 2 7 2;
#X connect 8 3 7 3;
#X connect 8 4 7 4;
#X connect 8 5 7 5;
#X connect 15 0 31 0;
#X connect 16 0 34 0;
#X connect 17 0 5 0;
#X connect 18 0 29 0;
#X connect 19 0 30 0;
#X connect 22 0 30 2;
#X connect 22 0 31 2;
#X connect 22 0 34 2;
#X connect 22 1 31 3;
#X connect 22 1 30 3;
#X connect 22 1 34 3;
#X connect 23 0 24 0;
#X connect 25 0 8 0;
#X connect 26 0 31 1;
#X connect 27 0 30 1;
#X connect 28 0 34 1;
#X connect 30 0 20 0;
#X connect 30 1 20 0;
#X connect 31 0 20 0;
#X connect 31 1 20 0;
#X connect 34 0 20 0;
#X connect 34 1 20 0;
#X coords 0 -1 1 1 285 100 1 -22 10;
