#N canvas 0 34 1175 583 10;
#X declare -path SOPI;
#X declare -path INSTR;
#X declare -path SOPI;
#X declare -path INSTR;
#X declare -path ../granular;
#X declare -path ../samples;
#X declare -path SOPI;
#X declare -path INSTR;
#X obj 267 -44 cnv 15 800 250 empty empty mapping 20 12 0 14 -233017
-66577 0;
#X obj -53 -49 cnv 15 100 250 empty empty GUI 20 12 0 14 -233017 -66577
0;
#X obj 264 212 cnv 15 800 300 empty empty instrument_routing 20 12
0 14 -233017 -66577 0;
#X obj -1 37 cnv 15 250 24 empty \$0-instrNAME SOUND_MODULE_NAME 20
12 0 16 -166441 -262144 0;
#X obj -23 118 inlet instrumentID;
#X obj 663 -1 route d1 d2 d3;
#N canvas 360 22 450 300 instrNAME 0;
#X obj 130 44 inlet;
#X obj 134 68 sel 1 2 3;
#X obj 288 67 loadbang;
#X obj 117 214 s \$0-instrNAME;
#X msg 162 143 label _PESI_4point_WaveSynth;
#X msg 235 185 label _PESI_AsyncGranular;
#X text 14 18 18;
#X text 26 42 13;
#X msg 296 114 color 1 0 0;
#X msg 12 69 color 13 0 0;
#X msg 60 138 color 16 0 0;
#X msg 11 217 color 18 0 0;
#X msg 99 101 label PESI_onbody_TestTone;
#X msg 288 93 label SOUND_MODULE_NAME;
#X connect 0 0 1 0;
#X connect 1 0 12 0;
#X connect 1 0 9 0;
#X connect 1 1 4 0;
#X connect 1 1 10 0;
#X connect 1 2 5 0;
#X connect 1 2 11 0;
#X connect 2 0 13 0;
#X connect 2 0 8 0;
#X connect 4 0 3 0;
#X connect 5 0 3 0;
#X connect 8 0 3 0;
#X connect 9 0 3 0;
#X connect 10 0 3 0;
#X connect 11 0 3 0;
#X connect 12 0 3 0;
#X connect 13 0 3 0;
#X restore -21 317 pd instrNAME;
#N canvas 436 385 542 308 positionScale 0;
#X obj -328 29 inlet;
#X obj -327 82 outlet;
#X obj -282 79 inlet;
#X obj -284 137 outlet;
#X obj -170 25 inlet;
#X obj -169 78 outlet;
#X obj -124 75 inlet;
#X obj -126 133 outlet;
#X obj -2 30 inlet;
#X obj -1 83 outlet;
#X obj 44 80 inlet;
#X obj 42 138 outlet;
#X obj -282 110 sopiscale 1 100 0 1500;
#X obj -124 106 sopiscale 1 100 0 1500;
#X obj 44 111 sopiscale 1 100 0 1500;
#X connect 0 0 1 0;
#X connect 2 0 12 0;
#X connect 4 0 5 0;
#X connect 6 0 13 0;
#X connect 8 0 9 0;
#X connect 10 0 14 0;
#X connect 12 0 3 0;
#X connect 13 0 7 0;
#X connect 14 0 11 0;
#X restore 774 22 pd positionScale;
#X obj 774 -1 unpack f f f f f f;
#X obj 754 453 outlet ang1;
#X obj 781 474 outlet spr1;
#X obj 804 428 outlet ang2;
#X obj 882 474 outlet ang3;
#X obj 830 448 outlet spr2;
#X obj 906 450 outlet spr3;
#X obj 271 -19 inlet sensorsInstD1;
#X obj 536 -21 inlet sensorsInstD3;
#X obj 663 -21 inlet distances;
#X obj 108 199 nbx 5 30 -1e+37 1e+37 0 0 empty empty empty 0 -8 0 20
-4160 -262144 -33289 0 256;
#X obj 111 128 nbx 5 30 -1e+37 1e+37 0 0 empty empty empty 0 -8 0 20
-258113 -262144 -33289 0 256;
#X obj 111 165 nbx 5 30 -1e+37 1e+37 0 0 empty empty empty 0 -8 0 20
-4034 -262144 -33289 0 256;
#X obj 997 -21 inlet behaviours;
#X obj 399 -21 inlet sensorsInstD2;
#X obj 319 460 outlet~;
#X floatatom -10 146 5 0 0 0 - - #0-InId;
#X floatatom 997 296 5 0 0 0 - - -;
#N canvas 290 47 474 275 distancescale 0;
#X obj 34 42 inlet;
#X obj 34 103 outlet;
#X obj 192 42 inlet;
#X obj 192 103 outlet;
#X obj 326 41 inlet;
#X obj 326 102 outlet;
#X obj 34 77 sopiscale 0 1 500 4000;
#X obj 192 77 sopiscale 0 1 500 4000;
#X obj 326 74 sopiscale 0 1 500 4000;
#X connect 0 0 6 0;
#X connect 2 0 7 0;
#X connect 4 0 8 0;
#X connect 6 0 1 0;
#X connect 7 0 3 0;
#X connect 8 0 5 0;
#X restore 638 31 pd distancescale;
#X obj 897 -22 inlet speed;
#N canvas 533 402 474 275 speedsscale 0;
#X obj 163 -24 inlet;
#X obj 59 196 outlet;
#X obj 192 160 outlet;
#X obj 327 171 outlet;
#X obj 167 13 unpack f f f;
#X obj 60 78 sopiscale 0.5 2 0 100;
#X obj 192 77 sopiscale 0.5 2 0 100;
#X obj 326 76 sopiscale 0.5 2 0 100;
#X connect 0 0 4 0;
#X connect 4 0 5 0;
#X connect 4 1 6 0;
#X connect 4 2 7 0;
#X connect 5 0 1 0;
#X connect 6 0 2 0;
#X connect 7 0 3 0;
#X restore 897 0 pd speedsscale;
#X obj 774 -22 inlet azimuth;
#X obj 359 -40 r \$0-InId;
#X obj 485 -40 r \$0-InId;
#X obj 639 -43 r \$0-InId;
#X obj 1007 467 outlet;
#X floatatom 602 253 5 0 0 0 - - -;
#X floatatom 660 253 5 0 0 0 - - -;
#X msg 554 324 41;
#X msg 557 354 4735;
#X floatatom 706 256 5 0 0 0 - - -;
#X msg 652 320 135;
#X msg 652 344 2316;
#X text 685 329 width;
#X text 584 309 lenght;
#X obj 337 335 _PESI_Green_onbody;
#X obj 480 37 _PESI_Blue_onbody 1;
#X obj 458 366 graincloud;
#X obj 197 342 _PESI_Red_onbody;
#X connect 4 0 6 0;
#X connect 4 0 24 0;
#X connect 5 0 26 0;
#X connect 5 0 34 0;
#X connect 5 1 26 1;
#X connect 5 1 35 0;
#X connect 5 2 26 2;
#X connect 5 2 38 0;
#X connect 7 0 9 0;
#X connect 7 1 10 0;
#X connect 7 2 11 0;
#X connect 7 3 13 0;
#X connect 7 4 12 0;
#X connect 7 5 14 0;
#X connect 8 0 7 0;
#X connect 8 1 7 1;
#X connect 8 2 7 2;
#X connect 8 3 7 3;
#X connect 8 4 7 4;
#X connect 8 5 7 5;
#X connect 15 0 46 0;
#X connect 16 0 44 0;
#X connect 17 0 5 0;
#X connect 21 0 25 0;
#X connect 21 0 33 0;
#X connect 22 0 43 0;
#X connect 26 0 43 2;
#X connect 26 0 45 1;
#X connect 26 0 46 2;
#X connect 26 1 43 3;
#X connect 26 1 45 2;
#X connect 26 1 46 3;
#X connect 27 0 28 0;
#X connect 28 0 45 3;
#X connect 29 0 8 0;
#X connect 30 0 46 1;
#X connect 31 0 43 1;
#X connect 32 0 44 1;
#X connect 43 0 23 0;
#X connect 43 1 23 0;
#X connect 44 0 45 0;
#X connect 44 1 45 0;
#X connect 45 0 23 0;
#X connect 46 0 23 0;
#X connect 46 1 23 0;
#X coords 0 -1 1 1 285 100 1 -22 10;
