#N canvas 315 252 699 449 10;
#X declare -path SOPI;
#X declare -path INSTR;
#X declare -path ../granular;
#X declare -path ../samples;
#X obj 78 18 cnv 15 600 60 empty empty empty 20 12 0 14 -233017 -66577
0;
#X obj 513 162 tgl 40 0 empty empty empty 17 7 0 10 -262144 -1 -1 1
1;
#X obj 523 119 loadbang;
#X obj 78 79 cnv 15 600 10 empty empty INPUTS 100 -120 0 46 -261234
-66577 0;
#X obj 348 276 *~;
#X obj 513 256 vline~;
#X obj 514 214 sel 1 0;
#X obj 416 280 *~;
#N canvas 0 22 455 419 magnitude 0;
#X obj 97 26 inlet;
#X obj 217 23 inlet;
#X obj 158 27 inlet;
#X obj 96 194 *;
#X obj 158 194 *;
#X obj 217 194 *;
#X obj 96 224 +;
#X obj 96 254 +;
#X obj 96 284 pow 0.5;
#X msg 96 164 \$1 \$1;
#X msg 158 164 \$1 \$1;
#X msg 217 164 \$1 \$1;
#X obj 96 326 outlet;
#X obj 150 285 s \$0-magnitude;
#N canvas 305 237 734 482 mag 0;
#X obj 75 -626 inlet;
#X obj 344 -581 abs;
#X obj 433 -540 - 1.1;
#X obj 472 -565 spigot;
#X obj 382 -564 moses 1;
#X obj 425 -587 f;
#X obj 383 -588 t b f;
#X obj 432 -564 * 0.9;
#X obj 433 -518 clip 0 5;
#X obj 542 -449 spigot;
#X obj 421 -454 moses 1;
#X obj 486 -491 f;
#X obj 433 -481 t b f;
#X obj 482 -457 * 0.9;
#X obj 473 -588 > 0.001;
#X obj 551 -483 > 0.001;
#X obj 479 -422 s \$0-slowmag;
#X connect 0 0 1 0;
#X connect 1 0 6 0;
#X connect 2 0 8 0;
#X connect 3 0 5 1;
#X connect 4 1 5 1;
#X connect 5 0 7 0;
#X connect 6 0 5 0;
#X connect 6 1 4 0;
#X connect 7 0 3 0;
#X connect 7 0 4 1;
#X connect 7 0 2 0;
#X connect 7 0 14 0;
#X connect 8 0 12 0;
#X connect 9 0 11 1;
#X connect 10 1 11 1;
#X connect 11 0 13 0;
#X connect 12 0 11 0;
#X connect 12 1 10 0;
#X connect 13 0 9 0;
#X connect 13 0 10 1;
#X connect 13 0 15 0;
#X connect 13 0 16 0;
#X connect 14 0 3 1;
#X connect 15 0 9 1;
#X restore 301 326 pd mag;
#X obj 301 304 r \$0-magnitude;
#X connect 0 0 9 0;
#X connect 1 0 11 0;
#X connect 2 0 10 0;
#X connect 3 0 6 0;
#X connect 4 0 6 1;
#X connect 5 0 7 1;
#X connect 6 0 7 0;
#X connect 7 0 8 0;
#X connect 8 0 12 0;
#X connect 8 0 13 0;
#X connect 9 0 3 0;
#X connect 10 0 4 0;
#X connect 11 0 5 0;
#X connect 15 0 14 0;
#X restore 95 164 pd magnitude;
#X obj 357 -60 declare -path SOPI;
#X obj 356 -39 declare -path INSTR;
#X obj 337 248 clip~ -1 1;
#X obj 348 224 hip~ 3;
#X obj 411 249 clip~ -1 1;
#X obj 416 221 hip~ 3;
#X obj 82 24 s \$0-accelerometerX;
#X obj 82 41 s \$0-accelerometerY;
#X obj 82 58 s \$0-accelerometerZ;
#X obj 214 30 s \$0-gyroscopeX;
#X obj 216 43 s \$0-gyroscopeY;
#X obj 216 61 s \$0-gyroscopeZ;
#X obj 428 68 s \$0-touchPositionX;
#X obj 313 91 s \$0-touchPositionY;
#X obj 144 -59 inlet;
#X obj 94 96 r \$0-accelerometerX;
#X obj 128 116 r \$0-accelerometerY;
#X obj 164 138 r \$0-accelerometerZ;
#X obj 317 49 s \$0-touchIO;
#X obj 513 97 r \$0-touchIO;
#X obj 347 308 outlet~;
#X obj 417 308 outlet~;
#X obj 498 -59 inlet;
#X msg 523 140 1;
#X symbolatom 690 342 10 0 0 0 - - -;
#X msg 532 288 1;
#X msg 561 285 0;
#X obj 598 290 loadbang;
#X obj 520 363 switch~;
#X obj 313 71 sopiscale 0 1 0 460;
#X obj 428 50 sopiscale 0 1 0 300;
#N canvas 265 82 450 300 tuning 0;
#X obj 50 208 s \$0-tune1x;
#X obj 81 231 s \$0-tune1y;
#X obj 129 210 s \$0-tune2x;
#X obj 160 233 s \$0-tune2y;
#X obj 208 203 s \$0-tune3x;
#X obj 239 226 s \$0-tune3y;
#X obj 290 203 s \$0-tune4x;
#X obj 321 226 s \$0-tune4y;
#X obj 54 -21 inlet;
#X obj 88 17 inlet;
#X obj 139 -18 inlet;
#X obj 173 20 inlet;
#X obj 220 -11 inlet;
#X obj 254 27 inlet;
#X obj 290 -13 inlet;
#X obj 324 25 inlet;
#X obj 84 89 sopiscale 0 1 0 460;
#X obj 54 67 sopiscale 0 1 0 300;
#X obj 167 147 sopiscale 0 1 0 460;
#X obj 137 125 sopiscale 0 1 0 300;
#X obj 251 90 sopiscale 0 1 0 460;
#X obj 221 68 sopiscale 0 1 0 300;
#X obj 329 150 sopiscale 0 1 0 460;
#X obj 299 128 sopiscale 0 1 0 300;
#X connect 8 0 17 0;
#X connect 9 0 16 0;
#X connect 10 0 19 0;
#X connect 11 0 18 0;
#X connect 12 0 21 0;
#X connect 13 0 20 0;
#X connect 14 0 23 0;
#X connect 15 0 22 0;
#X connect 16 0 1 0;
#X connect 17 0 0 0;
#X connect 18 0 3 0;
#X connect 19 0 2 0;
#X connect 20 0 5 0;
#X connect 21 0 4 0;
#X connect 22 0 7 0;
#X connect 23 0 6 0;
#X restore 580 26 pd tuning;
#X obj 572 -55 inlet dist1;
#X obj 647 -54 inlet dist2;
#X obj 85 226 declare -path ../granular;
#X obj 87 248 declare -path ../samples;
#X obj 295 306 env~;
#X floatatom 294 336 5 0 0 0 - - -;
#X msg 514 236 3 400;
#N canvas 283 62 997 704 RED_onbody 0;
#X obj 85 -367 - 1;
#X obj 84 -346 abs;
#X obj 471 -343 sopiscale 0 10 -1 1;
#X obj 327 -341 sopiscale 0 1 -1 1;
#X obj 85 -388 r \$0-touchPositionY;
#X obj 207 -388 r \$0-touchPositionX;
#X obj 327 -389 r \$0-gyroscopeX;
#X obj 439 -390 r \$0-gyroscopeY;
#X obj 537 -390 r \$0-gyroscopeZ;
#N canvas 639 197 590 294 tuning 0;
#X obj 46 108 -;
#X obj 97 112 -;
#X obj 80 132 -;
#X obj 232 99 +;
#X obj 235 120 sqrt;
#X obj 196 74 t f f;
#X obj 200 96 *;
#X obj 360 103 -;
#X obj 419 111 -;
#X obj 372 127 -;
#X obj 258 75 t f f;
#X obj 262 97 *;
#X obj 47 88 pipe 10;
#X obj 30 132 pipe 10;
#X obj 98 93 pipe 10;
#X obj 307 104 pipe 10;
#X obj 322 127 pipe 10;
#X obj 420 92 pipe 10;
#X obj 235 167 outlet;
#X obj 45 -36 r \$0-tune1x;
#X obj 62 -5 r \$0-tune1y;
#X obj 95 24 r \$0-tune2x;
#X obj 111 52 r \$0-tune2y;
#X obj 305 71 r \$0-tune3x;
#X obj 375 71 r \$0-tune3y;
#X obj 420 35 r \$0-tune4x;
#X obj 452 68 r \$0-tune4y;
#X floatatom 195 152 5 0 0 0 - - -;
#X connect 0 0 13 0;
#X connect 1 0 2 1;
#X connect 2 0 5 0;
#X connect 3 0 4 0;
#X connect 4 0 18 0;
#X connect 4 0 27 0;
#X connect 5 0 6 0;
#X connect 5 1 6 1;
#X connect 6 0 3 0;
#X connect 7 0 16 0;
#X connect 8 0 9 1;
#X connect 9 0 10 0;
#X connect 10 0 11 0;
#X connect 10 1 11 1;
#X connect 11 0 3 1;
#X connect 12 0 0 0;
#X connect 13 0 2 0;
#X connect 14 0 1 0;
#X connect 15 0 7 0;
#X connect 16 0 9 0;
#X connect 17 0 8 0;
#X connect 19 0 12 0;
#X connect 20 0 0 1;
#X connect 21 0 14 0;
#X connect 22 0 1 1;
#X connect 23 0 15 0;
#X connect 24 0 7 1;
#X connect 25 0 17 0;
#X connect 26 0 8 1;
#X restore 17 -357 pd tuning;
#X obj -6 -386 r \$0-magnitude;
#X obj 423 149 outlet~;
#N canvas 711 22 590 294 tuning 0;
#X floatatom 15 75 5 0 0 0 - weight-x1 -;
#X floatatom 84 54 5 0 0 0 - weight-x2 -;
#X floatatom 307 78 5 0 0 0 - weight-y2 -;
#X floatatom 99 72 5 0 0 0 - weight-x3 -;
#X floatatom 139 73 5 0 0 0 - weight-x4 -;
#X floatatom 433 48 5 0 0 0 - weight-y4 -;
#X floatatom 375 77 5 0 0 0 - weight-y1 -;
#X floatatom 420 71 5 0 0 0 - weight-y3 -;
#X obj 68 108 -;
#X obj 97 112 -;
#X obj 80 132 -;
#X obj 232 99 +;
#X obj 235 120 sqrt;
#X floatatom 237 142 8 0 0 0 - - sqkey;
#X obj 196 74 t f f;
#X obj 200 96 *;
#X obj 360 103 -;
#X obj 419 111 -;
#X obj 371 126 -;
#X obj 258 75 t f f;
#X obj 262 97 *;
#X obj 15 109 pipe 10;
#X obj 25 133 pipe 10;
#X obj 98 93 pipe 10;
#X obj 307 104 pipe 10;
#X obj 322 127 pipe 10;
#X obj 420 92 pipe 10;
#X obj 15 -61 r tune1x;
#X obj 39 -36 r tune1y;
#X obj 106 -60 r tune2x;
#X obj 122 -32 r tune2y;
#X obj 305 -60 r tune3x;
#X obj 323 -36 r tune3y;
#X obj 395 -68 r tune4x;
#X obj 429 -32 r tune4y;
#X msg 212 -23 1;
#X obj 239 0 change;
#X msg 239 -23 0;
#X obj 212 -95 r instID;
#X obj 10 -3 spigot;
#X obj 213 -74 + 1;
#X obj 43 21 spigot;
#X obj 96 -3 spigot;
#X obj 129 21 spigot;
#X obj 290 -7 spigot;
#X obj 323 17 spigot;
#X obj 393 -12 spigot;
#X obj 426 12 spigot;
#X floatatom 129 144 5 0 0 0 - - -;
#X floatatom 193 42 5 0 0 0 - - -;
#X floatatom 278 45 5 0 0 0 - - -;
#X obj 247 165 outlet;
#X obj 213 -53 sel 1;
#X connect 0 0 21 0;
#X connect 1 0 8 1;
#X connect 2 0 24 0;
#X connect 3 0 23 0;
#X connect 4 0 9 1;
#X connect 5 0 17 1;
#X connect 6 0 16 1;
#X connect 7 0 26 0;
#X connect 8 0 22 0;
#X connect 8 0 48 0;
#X connect 9 0 10 1;
#X connect 10 0 14 0;
#X connect 11 0 12 0;
#X connect 12 0 13 0;
#X connect 12 0 51 0;
#X connect 14 0 15 0;
#X connect 14 1 15 1;
#X connect 15 0 11 0;
#X connect 16 0 25 0;
#X connect 17 0 18 1;
#X connect 18 0 19 0;
#X connect 19 0 20 0;
#X connect 19 1 20 1;
#X connect 20 0 11 1;
#X connect 21 0 8 0;
#X connect 22 0 10 0;
#X connect 23 0 9 0;
#X connect 24 0 16 0;
#X connect 25 0 18 0;
#X connect 26 0 17 0;
#X connect 27 0 39 0;
#X connect 28 0 41 0;
#X connect 29 0 42 0;
#X connect 30 0 43 0;
#X connect 31 0 44 0;
#X connect 32 0 45 0;
#X connect 33 0 46 0;
#X connect 34 0 47 0;
#X connect 35 0 36 0;
#X connect 36 0 42 1;
#X connect 36 0 43 1;
#X connect 36 0 39 1;
#X connect 36 0 41 1;
#X connect 36 0 44 1;
#X connect 36 0 45 1;
#X connect 36 0 46 1;
#X connect 36 0 47 1;
#X connect 37 0 36 0;
#X connect 38 0 40 0;
#X connect 39 0 21 0;
#X connect 40 0 52 0;
#X connect 41 0 8 1;
#X connect 42 0 23 0;
#X connect 43 0 9 1;
#X connect 44 0 24 0;
#X connect 45 0 16 1;
#X connect 46 0 26 0;
#X connect 47 0 17 1;
#X connect 49 0 14 0;
#X connect 50 0 19 0;
#X connect 52 0 35 0;
#X connect 52 1 37 0;
#X restore 58 -321 pd tuning;
#X obj 536 154 outlet~;
#N canvas 107 273 872 447 mappings 0;
#X obj 530 -98 r gyroscopeY;
#X obj 632 -98 r gyroscopeZ;
#X restore 314 -311 pd mappings;
#X symbolatom 283 121 10 0 0 0 - - -;
#X symbolatom 174 153 10 0 0 0 - - -;
#X obj 590 -263 r \$0-magnitude;
#X obj 389 -253 r \$0-gyroscopeX;
#X obj 189 -259 r \$0-gyroscopeY;
#X obj 323 -109 granular \$1;
#X obj 188 -230 sopiscale 0 128 0 1;
#X obj 389 -227 sopiscale 0 40 0 1;
#X obj 775 -365 inlet;
#X connect 0 0 1 0;
#X connect 4 0 0 0;
#X connect 4 0 20 0;
#X connect 6 0 3 0;
#X connect 18 0 22 0;
#X connect 19 0 21 0;
#X connect 20 0 11 0;
#X connect 20 1 13 0;
#X connect 21 0 20 1;
#X connect 22 0 20 2;
#X connect 23 0 20 3;
#X restore 345 149 pd RED_onbody;
#X msg 552 237 0 100;
#X obj 561 263 delay 105;
#X obj 534 333 change;
#X obj 602 147 sel 3;
#X obj 144 -17 route accelx accely accelz gyrox gyroy gyroz touchIO
touchx touchy tune1x tune1y tune2x tune2y tune3x tune3y tune4x tune4y
;
#X connect 1 0 6 0;
#X connect 2 0 32 0;
#X connect 4 0 29 0;
#X connect 4 0 45 0;
#X connect 5 0 7 1;
#X connect 5 0 4 1;
#X connect 6 0 47 0;
#X connect 6 0 34 0;
#X connect 6 1 49 0;
#X connect 6 1 50 0;
#X connect 7 0 30 0;
#X connect 11 0 4 0;
#X connect 12 0 11 0;
#X connect 13 0 7 0;
#X connect 14 0 13 0;
#X connect 23 0 53 0;
#X connect 24 0 8 0;
#X connect 25 0 8 1;
#X connect 26 0 8 2;
#X connect 28 0 1 0;
#X connect 31 0 52 0;
#X connect 32 0 1 0;
#X connect 34 0 51 0;
#X connect 35 0 51 0;
#X connect 36 0 35 0;
#X connect 38 0 22 0;
#X connect 39 0 21 0;
#X connect 45 0 46 0;
#X connect 47 0 5 0;
#X connect 48 0 12 0;
#X connect 48 1 14 0;
#X connect 49 0 5 0;
#X connect 50 0 35 0;
#X connect 51 0 37 0;
#X connect 52 0 48 0;
#X connect 53 0 18 0;
#X connect 53 1 19 0;
#X connect 53 2 20 0;
#X connect 53 3 15 0;
#X connect 53 4 16 0;
#X connect 53 5 17 0;
#X connect 53 6 27 0;
#X connect 53 7 39 0;
#X connect 53 8 38 0;
#X connect 53 9 40 0;
#X connect 53 10 40 1;
#X connect 53 11 40 2;
#X connect 53 12 40 3;
#X connect 53 13 40 4;
#X connect 53 14 40 5;
#X connect 53 15 40 6;
#X connect 53 16 40 7;
