#N canvas 850 447 882 545 10;
#X obj 59 -64 cnv 15 650 145 empty empty empty 20 12 0 14 -233017 -66577
0;
#X obj 344 177 tgl 40 0 empty empty empty 17 7 0 10 -262144 -1 -1 1
1;
#X obj 354 134 loadbang;
#X obj 58 82 cnv 15 650 10 empty empty INPUTS 100 -120 0 46 -261234
-66577 0;
#X obj 535 288 *~;
#X obj 344 271 vline~;
#X obj 345 229 sel 1 0;
#X msg 383 252 0 1000;
#X obj 605 288 *~;
#X obj 535 258 clip~ -1 1;
#X obj 535 232 hip~ 3;
#X obj 605 257 clip~ -1 1;
#X obj 605 232 hip~ 3;
#X obj 535 208 *~ 2;
#X obj 605 206 *~ 2;
#X obj 118 -55 inlet;
#X obj 344 112 r \$0-touchIO;
#X obj 535 338 outlet~;
#X obj 605 340 outlet~;
#X obj 396 -52 inlet;
#X msg 354 155 1;
#X msg 345 305 1;
#X msg 374 302 0;
#X obj 401 276 delay 505;
#X obj 345 331 switch~;
#X obj 402 302 loadbang;
#X obj 396 227 sel 2;
#X obj 50 65 s \$0-accelerometerX;
#X obj 65 82 s \$0-accelerometerY;
#X obj 80 99 s \$0-accelerometerZ;
#X obj 179 64 s \$0-gyroscopeX;
#X obj 193 81 s \$0-gyroscopeY;
#X obj 209 99 s \$0-gyroscopeZ;
#X obj 321 76 s \$0-touchPositionX;
#X obj 330 53 s \$0-touchPositionY;
#X obj 241 44 s \$0-touchIO;
#N canvas 300 385 450 300 tuning 0;
#X obj 54 -21 inlet;
#X obj 88 17 inlet;
#X obj 139 -18 inlet;
#X obj 173 20 inlet;
#X obj 220 -11 inlet;
#X obj 254 27 inlet;
#X obj 290 -13 inlet;
#X obj 324 25 inlet;
#X obj 60 218 s \$0-tune1x;
#X obj 91 241 s \$0-tune1y;
#X obj 139 220 s \$0-tune2x;
#X obj 170 243 s \$0-tune2y;
#X obj 218 213 s \$0-tune3x;
#X obj 249 236 s \$0-tune3y;
#X obj 300 213 s \$0-tune4x;
#X obj 331 236 s \$0-tune4y;
#X connect 0 0 8 0;
#X connect 1 0 9 0;
#X connect 2 0 10 0;
#X connect 3 0 11 0;
#X connect 4 0 12 0;
#X connect 5 0 13 0;
#X connect 6 0 14 0;
#X connect 7 0 15 0;
#X restore 484 36 pd tuning;
#X msg 345 251 2 400;
#N canvas 788 215 831 444 GREEN_onbody 0;
#X obj 148 -22 outlet~;
#X obj 151 -47 rev3~ 90 70;
#X obj 123 -390 r \$0-touchPositionY;
#X obj 2 -389 r \$0-touchPositionX;
#X obj 252 -389 r \$0-gyroscopeX;
#X obj 351 -391 r \$0-gyroscopeY;
#X obj 455 -389 r \$0-gyroscopeZ;
#X obj 560 -364 sopiscale 0 10 -1 1;
#X obj 560 -340 int;
#X obj 687 -363 sopiscale 0 10 -1 1;
#X obj 687 -339 int;
#X text 296 -195 GREEN ONBODY SOUND MODULE;
#X text 269 -302 Tuning module is in 4p_adapt_subsynth / 4pointWeighted
subpatch and in 4p_adapt_subsynth / SOPIu_sub;
#X text 297 -176 This sound module is a pulse width modulation [PWM]
and squarewave generator for audio synthesis controlled through touch
input and accelerometer data. The 4 point weighted mapping strategy
is described in the following paper:;
#X text 265 -318 <<-- 4 point weighted mapping in tuning module;
#X obj 154 -89 *~ 0.5;
#X obj 153 -320 4p_adapt_subsynth;
#X obj 560 -387 r \$0-accelerationX;
#X obj 687 -388 r \$0-accelerationY;
#X connect 1 0 0 0;
#X connect 1 1 0 0;
#X connect 1 2 0 0;
#X connect 1 3 0 0;
#X connect 2 0 16 1;
#X connect 3 0 16 0;
#X connect 7 0 8 0;
#X connect 8 0 16 2;
#X connect 9 0 10 0;
#X connect 10 0 16 3;
#X connect 15 0 1 0;
#X connect 15 0 1 1;
#X connect 16 0 15 0;
#X connect 16 1 15 0;
#X connect 17 0 7 0;
#X connect 18 0 9 0;
#X restore 535 140 pd GREEN_onbody;
#X obj 541 62 inlet dist1;
#X obj 635 60 inlet dist2;
#X obj 535 165 fx;
#N canvas 29 160 246 311 exponential 0;
#X obj 35 222 exponential_curve;
#X obj 36 69 inlet;
#X obj 35 249 outlet;
#X obj 135 173 loadbang;
#X msg 135 195 0.18367;
#X connect 0 0 2 0;
#X connect 1 0 0 0;
#X connect 3 0 4 0;
#X connect 4 0 0 1;
#X restore 541 85 pd exponential;
#N canvas 29 160 219 322 exponential 0;
#X obj 35 222 exponential_curve;
#X obj 32 60 inlet;
#X obj 34 245 outlet;
#X obj 133 169 loadbang;
#X msg 133 192 0.18367;
#X connect 0 0 2 0;
#X connect 1 0 0 0;
#X connect 3 0 4 0;
#X connect 4 0 0 1;
#X restore 635 84 pd exponential;
#X obj 564 166 rev3~ 90;
#X obj 636 129 sopiscale 60 105 0 1;
#X obj 541 108 sopiscale 0 124 0 1;
#X obj 118 -7 route accelx accely accelz gyrox gyroy gyroz touchIO
touchx touchy tune1x tune1y tune2x tune2y tune3x tune3y tune4x tune4y
;
#X obj 66 438 cnv 15 650 10 empty empty SOUND_MODULE_GREEN 100 -40
0 46 -261234 -66577 0;
#X connect 1 0 6 0;
#X connect 2 0 20 0;
#X connect 4 0 17 0;
#X connect 5 0 8 1;
#X connect 5 0 4 1;
#X connect 6 0 37 0;
#X connect 6 0 21 0;
#X connect 6 1 7 0;
#X connect 6 1 23 0;
#X connect 7 0 5 0;
#X connect 8 0 18 0;
#X connect 9 0 4 0;
#X connect 10 0 9 0;
#X connect 11 0 8 0;
#X connect 12 0 11 0;
#X connect 13 0 10 0;
#X connect 14 0 12 0;
#X connect 15 0 47 0;
#X connect 16 0 1 0;
#X connect 19 0 26 0;
#X connect 20 0 1 0;
#X connect 21 0 24 0;
#X connect 22 0 24 0;
#X connect 23 0 22 0;
#X connect 25 0 22 0;
#X connect 26 0 21 0;
#X connect 26 1 22 0;
#X connect 37 0 5 0;
#X connect 38 0 41 0;
#X connect 38 0 44 0;
#X connect 38 0 44 1;
#X connect 39 0 42 0;
#X connect 40 0 43 0;
#X connect 41 0 13 0;
#X connect 41 0 14 0;
#X connect 42 0 46 0;
#X connect 43 0 45 0;
#X connect 44 0 13 0;
#X connect 44 1 14 0;
#X connect 44 2 13 0;
#X connect 44 2 14 0;
#X connect 44 3 13 0;
#X connect 44 3 14 0;
#X connect 45 0 44 3;
#X connect 46 0 41 1;
#X connect 47 0 27 0;
#X connect 47 1 28 0;
#X connect 47 2 29 0;
#X connect 47 3 30 0;
#X connect 47 4 31 0;
#X connect 47 5 32 0;
#X connect 47 6 35 0;
#X connect 47 7 33 0;
#X connect 47 8 34 0;
#X connect 47 9 36 0;
#X connect 47 10 36 1;
#X connect 47 11 36 2;
#X connect 47 12 36 3;
#X connect 47 13 36 4;
#X connect 47 14 36 5;
#X connect 47 15 36 6;
#X connect 47 16 36 7;
