#N canvas 401 163 772 546 10;
#X obj 78 -69 cnv 15 650 154 empty empty empty 20 12 0 14 -233017 -66577
0;
#X obj 76 86 cnv 15 650 10 empty empty INPUTS 100 -120 0 46 -261234
-66577 0;
#X obj 71 65 s \$0-accelerometerX;
#X obj 79 82 s \$0-accelerometerY;
#X obj 89 99 s \$0-accelerometerZ;
#X obj 197 66 s \$0-gyroscopeX;
#X obj 211 83 s \$0-gyroscopeY;
#X obj 229 101 s \$0-gyroscopeZ;
#X obj 343 60 s \$0-touchPositionX;
#X obj 343 81 s \$0-touchPositionY;
#X obj 136 -50 inlet;
#X obj 259 48 s \$0-touchIO;
#X obj 402 -56 inlet;
#N canvas 265 82 450 300 tuning 0;
#X obj 50 208 s \$0-tune1x;
#X obj 81 231 s \$0-tune1y;
#X obj 129 210 s \$0-tune2x;
#X obj 160 233 s \$0-tune2y;
#X obj 208 203 s \$0-tune3x;
#X obj 239 226 s \$0-tune3y;
#X obj 290 203 s \$0-tune4x;
#X obj 321 226 s \$0-tune4y;
#X obj 54 -21 inlet;
#X obj 88 17 inlet;
#X obj 139 -18 inlet;
#X obj 173 20 inlet;
#X obj 220 -11 inlet;
#X obj 254 27 inlet;
#X obj 290 -13 inlet;
#X obj 324 25 inlet;
#X connect 8 0 0 0;
#X connect 9 0 1 0;
#X connect 10 0 2 0;
#X connect 11 0 3 0;
#X connect 12 0 4 0;
#X connect 13 0 5 0;
#X connect 14 0 6 0;
#X connect 15 0 7 0;
#X restore 580 40 pd tuning;
#X obj 549 68 inlet dist1;
#X obj 624 63 inlet dist2;
#X obj 136 -3 route accelx accely accelz gyrox gyroy gyroz touchIO
touchx touchy tune1x tune1y tune2x tune2y tune3x tune3y tune4x tune4y
;
#X obj 76 448 cnv 15 650 10 empty empty SOUND_MODULE_BLUE 100 -40 0
46 -261234 -66577 0;
#X obj 354 187 tgl 40 0 empty empty empty 17 7 0 10 -262144 -1 -1 0
1;
#X obj 364 144 loadbang;
#X obj 545 298 *~;
#X obj 354 281 vline~;
#X obj 355 239 sel 1 0;
#X msg 393 262 0 1000;
#X obj 615 298 *~;
#X obj 545 268 clip~ -1 1;
#X obj 545 242 hip~ 3;
#X obj 615 267 clip~ -1 1;
#X obj 615 242 hip~ 3;
#X obj 545 218 *~ 2;
#X obj 615 216 *~ 2;
#X obj 354 122 r \$0-touchIO;
#X obj 545 348 outlet~;
#X obj 615 350 outlet~;
#X msg 364 165 1;
#X msg 355 315 1;
#X msg 384 312 0;
#X obj 411 286 delay 505;
#X obj 355 341 switch~;
#X obj 412 312 loadbang;
#X obj 545 175 fx;
#N canvas 29 160 246 311 exponential 0;
#X obj 35 222 exponential_curve;
#X obj 36 69 inlet;
#X obj 35 249 outlet;
#X obj 135 173 loadbang;
#X msg 135 195 0.18367;
#X connect 0 0 2 0;
#X connect 1 0 0 0;
#X connect 3 0 4 0;
#X connect 4 0 0 1;
#X restore 551 95 pd exponential;
#N canvas 29 160 219 322 exponential 0;
#X obj 35 222 exponential_curve;
#X obj 32 60 inlet;
#X obj 34 245 outlet;
#X obj 133 169 loadbang;
#X msg 133 192 0.18367;
#X connect 0 0 2 0;
#X connect 1 0 0 0;
#X connect 3 0 4 0;
#X connect 4 0 0 1;
#X restore 645 94 pd exponential;
#X obj 574 176 rev3~ 90;
#X obj 646 139 sopiscale 60 105 0 1;
#X obj 551 118 sopiscale 0 124 0 1;
#X obj 406 237 sel 3;
#N canvas 200 278 831 444 BLUE_onbody 0;
#X obj 339 -10 outlet~;
#X obj 123 -390 r \$0-touchPositionY;
#X obj 2 -389 r \$0-touchPositionX;
#X obj 252 -389 r \$0-gyroscopeX;
#X obj 351 -391 r \$0-gyroscopeY;
#X obj 455 -389 r \$0-gyroscopeZ;
#N canvas 501 420 681 380 tuning------------ 0;
#X obj 9 -154 int;
#X obj 9 -127 outlet;
#X obj 182 -97 outlet;
#X obj 308 -133 outlet;
#X obj 456 -146 outlet;
#X text 145 -31 Tuning is an important feature in PESI On_Body \, you
can set and save pre-settings for your sound modules.;
#X obj 48 -271 pow 2;
#X obj 87 -271 pow 2;
#X obj 68 -252 +;
#X obj 67 -230 sqrt;
#X obj 197 -266 pow 2;
#X obj 236 -266 pow 2;
#X obj 217 -247 +;
#X obj 216 -225 sqrt;
#X obj 329 -266 pow 2;
#X obj 368 -266 pow 2;
#X obj 349 -247 +;
#X obj 348 -225 sqrt;
#X obj 529 -262 pow 2;
#X obj 568 -262 pow 2;
#X obj 549 -243 +;
#X obj 548 -221 sqrt;
#X text 509 -147 grain pitch;
#X obj 308 -195 sopiscale 0 100 0 500;
#X obj 182 -195 sopiscale 0 90 0 500;
#X obj 9 -193 sopiscale 0 3000 0 500;
#X obj 456 -200 sopiscale 0.1 10 130 500;
#X text 230 -92 Reverb - output level (0-100) dB;
#X text 304 -111 Reverb - liveless level (0-100);
#X text 7 -108 grains - duration (ms);
#X text 145 4 Each sound module in the PESI mobile instrument can be
tuned through a 4-point tuning interface \, which assigns to the sound
module with a parameter pre-set. The vector values for each points
are mapped to parameters which cannot be modified any other way.;
#X obj 15 -297 r \$0-tune1x;
#X obj 88 -297 r \$0-tune1y;
#X obj 160 -296 r \$0-tune2x;
#X obj 233 -296 r \$0-tune2y;
#X obj 316 -294 r \$0-tune3x;
#X obj 390 -294 r \$0-tune3y;
#X obj 507 -287 r \$0-tune4x;
#X obj 582 -288 r \$0-tune4y;
#X connect 0 0 1 0;
#X connect 6 0 8 0;
#X connect 7 0 8 1;
#X connect 8 0 9 0;
#X connect 9 0 25 0;
#X connect 10 0 12 0;
#X connect 11 0 12 1;
#X connect 12 0 13 0;
#X connect 13 0 24 0;
#X connect 14 0 16 0;
#X connect 15 0 16 1;
#X connect 16 0 17 0;
#X connect 17 0 23 0;
#X connect 18 0 20 0;
#X connect 19 0 20 1;
#X connect 20 0 21 0;
#X connect 21 0 26 0;
#X connect 23 0 3 0;
#X connect 24 0 2 0;
#X connect 25 0 0 0;
#X connect 26 0 4 0;
#X connect 31 0 6 0;
#X connect 32 0 7 0;
#X connect 33 0 10 0;
#X connect 34 0 11 0;
#X connect 35 0 14 0;
#X connect 36 0 15 0;
#X connect 37 0 18 0;
#X connect 38 0 19 0;
#X restore 317 -355 pd tuning------------;
#X text 403 -259 BLUE ONBODY SOUND MODULE;
#X text 404 -240 This sound module delivers grains in new order with
a new microrhythm in avery simple granular synthesis patch. Tuning
changes the values for duration and the pitch values of the grains
\, as well as reverb liveness and output level. Acceleration on x-axis
controls the positions of the grains in buffer (ms).;
#N canvas 205 124 845 547 grannu-------- 0;
#X obj 287 156 outlet~;
#X obj 74 -250 clip -1 1;
#X obj 223 -363 inlet tune1;
#X obj 296 -362 inlet tune2;
#X obj 370 -361 inlet tune3;
#X obj 446 -361 inlet tune4;
#X obj 528 -361 inlet;
#X obj 75 -217 sopiscale 0 1 -1 1;
#X obj 72 -364 inlet accelerationX;
#X obj 284 86 rev3~ 90 60;
#X obj 287 8 granular;
#X connect 1 0 7 0;
#X connect 2 0 10 1;
#X connect 3 0 9 2;
#X connect 4 0 9 3;
#X connect 5 0 10 2;
#X connect 6 0 10 3;
#X connect 7 0 10 0;
#X connect 8 0 1 0;
#X connect 9 0 0 0;
#X connect 9 1 0 0;
#X connect 9 2 0 0;
#X connect 9 3 0 0;
#X connect 10 0 9 0;
#X connect 10 0 9 1;
#X restore 338 -324 pd grannu--------;
#X obj 560 -387 r \$0-accelerometerX;
#X obj 687 -388 r \$0-accelerometerY;
#X obj 339 -149 *~ 1;
#X obj 777 -352 inlet;
#X obj 521 -304 del 30;
#X obj 623 -318 change;
#X connect 6 0 9 1;
#X connect 6 1 9 2;
#X connect 6 2 9 3;
#X connect 6 3 9 4;
#X connect 9 0 12 0;
#X connect 10 0 9 0;
#X connect 12 0 0 0;
#X connect 13 0 15 0;
#X connect 14 0 9 5;
#X connect 15 0 14 0;
#X restore 545 150 pd BLUE_onbody;
#X msg 355 261 2 400;
#X connect 10 0 16 0;
#X connect 12 0 46 0;
#X connect 14 0 41 0;
#X connect 15 0 42 0;
#X connect 16 0 2 0;
#X connect 16 1 3 0;
#X connect 16 2 4 0;
#X connect 16 3 5 0;
#X connect 16 4 6 0;
#X connect 16 5 7 0;
#X connect 16 6 11 0;
#X connect 16 7 8 0;
#X connect 16 8 9 0;
#X connect 16 9 13 0;
#X connect 16 10 13 1;
#X connect 16 11 13 2;
#X connect 16 12 13 3;
#X connect 16 13 13 4;
#X connect 16 14 13 5;
#X connect 16 15 13 6;
#X connect 16 16 13 7;
#X connect 18 0 22 0;
#X connect 19 0 34 0;
#X connect 20 0 32 0;
#X connect 21 0 24 1;
#X connect 21 0 20 1;
#X connect 22 0 48 0;
#X connect 22 0 35 0;
#X connect 22 1 23 0;
#X connect 22 1 37 0;
#X connect 23 0 21 0;
#X connect 24 0 33 0;
#X connect 25 0 20 0;
#X connect 26 0 25 0;
#X connect 27 0 24 0;
#X connect 28 0 27 0;
#X connect 29 0 26 0;
#X connect 30 0 28 0;
#X connect 31 0 18 0;
#X connect 34 0 18 0;
#X connect 35 0 38 0;
#X connect 35 0 47 0;
#X connect 36 0 38 0;
#X connect 37 0 36 0;
#X connect 39 0 36 0;
#X connect 40 0 29 0;
#X connect 40 0 30 0;
#X connect 41 0 45 0;
#X connect 42 0 44 0;
#X connect 43 0 29 0;
#X connect 43 1 30 0;
#X connect 43 2 29 0;
#X connect 43 2 30 0;
#X connect 43 3 29 0;
#X connect 43 3 30 0;
#X connect 44 0 43 3;
#X connect 45 0 40 1;
#X connect 46 0 35 0;
#X connect 46 1 36 0;
#X connect 47 0 40 0;
#X connect 47 0 43 0;
#X connect 47 0 43 1;
#X connect 48 0 21 0;
