#N canvas 587 570 791 510 10;
#X declare -path SOPI;
#X declare -path INSTR;
#X obj 81 -67 cnv 15 650 145 empty empty empty 20 12 0 14 -233017 -66577
0;
#X obj 513 162 tgl 40 0 empty empty empty 17 7 0 10 -262144 -1 -1 1
1;
#X obj 523 119 loadbang;
#X obj 81 79 cnv 15 650 10 empty empty INPUTS 100 -120 0 46 -261234
-66577 0;
#X obj 343 244 *~;
#X obj 513 256 vline~;
#X obj 514 214 sel 1 0;
#X msg 552 237 0 1000;
#X obj 413 243 *~;
#X obj 357 -60 declare -path SOPI;
#X obj 356 -39 declare -path INSTR;
#X obj 343 215 clip~ -1 1;
#X obj 343 192 hip~ 3;
#X obj 77 57 s \$0-accelerometerX;
#X obj 92 77 s \$0-accelerometerY;
#X obj 100 96 s \$0-accelerometerZ;
#X obj 205 56 s \$0-gyroscopeX;
#X obj 219 76 s \$0-gyroscopeY;
#X obj 226 97 s \$0-gyroscopeZ;
#X obj 334 67 s \$0-touchPositionX;
#X obj 349 46 s \$0-touchPositionY;
#X obj 144 -59 inlet;
#X obj 267 32 s \$0-touchIO;
#X obj 513 97 r \$0-touchIO;
#X obj 342 308 outlet~;
#X obj 413 307 outlet~;
#X obj 498 -59 inlet;
#X msg 523 140 1;
#X msg 532 288 1;
#X msg 561 285 0;
#X obj 561 263 delay 505;
#X obj 597 237 loadbang;
#X obj 532 315 switch~;
#X obj 569 208 sel 1;
#N canvas 265 82 450 300 tuning 0;
#X obj 54 170 s \$0-tune1x;
#X obj 84 231 s \$0-tune1y;
#X obj 137 193 s \$0-tune2x;
#X obj 167 230 s \$0-tune2y;
#X obj 221 186 s \$0-tune3x;
#X obj 251 218 s \$0-tune3y;
#X obj 299 186 s \$0-tune4x;
#X obj 329 209 s \$0-tune4y;
#X obj 54 -21 inlet;
#X obj 84 17 inlet;
#X obj 137 -12 inlet;
#X obj 167 22 inlet;
#X obj 220 -11 inlet;
#X obj 251 27 inlet;
#X obj 299 -13 inlet;
#X obj 329 26 inlet;
#X obj 84 89 sopiscale 0 1 0 460;
#X obj 54 67 sopiscale 0 1 0 300;
#X obj 167 147 sopiscale 0 1 0 460;
#X obj 137 125 sopiscale 0 1 0 300;
#X obj 251 90 sopiscale 0 1 0 460;
#X obj 221 68 sopiscale 0 1 0 300;
#X obj 329 150 sopiscale 0 1 0 460;
#X obj 299 128 sopiscale 0 1 0 300;
#X connect 8 0 17 0;
#X connect 9 0 16 0;
#X connect 10 0 19 0;
#X connect 11 0 18 0;
#X connect 12 0 21 0;
#X connect 13 0 20 0;
#X connect 14 0 23 0;
#X connect 15 0 22 0;
#X connect 16 0 1 0;
#X connect 17 0 0 0;
#X connect 18 0 3 0;
#X connect 19 0 2 0;
#X connect 20 0 5 0;
#X connect 21 0 4 0;
#X connect 22 0 7 0;
#X connect 23 0 6 0;
#X restore 531 26 pd tuning;
#X msg 514 236 4 400;
#N canvas 977 230 813 518 RED_onbody 0;
#X obj 207 53 outlet~;
#X obj 119 -256 * 10;
#X obj 119 -234 int;
#X obj 194 -216 * 10;
#X obj 194 -194 int;
#X obj 194 -258 - 1;
#X obj 194 -237 abs;
#X obj 207 6 +~;
#X obj 5 -388 r \$0-touchPositionY;
#X obj 127 -388 r \$0-touchPositionX;
#X obj 249 -389 r \$0-gyroscopeX;
#X obj 348 -389 r \$0-gyroscopeY;
#X obj 446 -389 r \$0-gyroscopeZ;
#X obj 119 -278 r \$0-tune1x;
#X obj 194 -279 r \$0-tune1y;
#X obj 175 -38 *~ 0.5;
#X obj 208 -38 *~ 0.5;
#X obj 544 -388 inlet dist1;
#X obj 618 -389 inlet dist2;
#X obj 174 -155 fftTONE;
#X text 230 -254 Tuning module sets the frequency values of the beating
patterns;
#X text 238 -108 Distance 1 sets the amplitude values of the beating
patterns;
#X text 235 -81 Distance 2 sets the amplitude values of the modulated
frequencies;
#X connect 1 0 2 0;
#X connect 2 0 19 0;
#X connect 3 0 4 0;
#X connect 4 0 19 1;
#X connect 5 0 6 0;
#X connect 6 0 3 0;
#X connect 7 0 0 0;
#X connect 13 0 1 0;
#X connect 14 0 5 0;
#X connect 15 0 7 1;
#X connect 16 0 7 0;
#X connect 17 0 19 2;
#X connect 18 0 19 3;
#X connect 19 0 15 0;
#X connect 19 1 16 0;
#X restore 343 144 pd RED_onbody;
#X obj 555 -58 inlet dist1;
#X obj 627 -59 inlet dist2;
#X obj 343 169 *~ 0.03;
#X obj 144 -17 route accelx accely accelz gyrox gyroy gyroz touchIO
touchx touchy tune1x tune1y tune2x tune2y tune3x tune3y tune4x tune4y
;
#X obj 81 399 cnv 15 650 10 empty empty SOUND_MODULE 100 -40 0 46 -261234
-66577 0;
#X obj 413 215 clip~ -1 1;
#X obj 413 192 hip~ 3;
#X obj 413 169 *~ 0.03;
#X connect 1 0 6 0;
#X connect 2 0 27 0;
#X connect 4 0 24 0;
#X connect 5 0 8 1;
#X connect 5 0 4 1;
#X connect 6 0 35 0;
#X connect 6 0 28 0;
#X connect 6 1 7 0;
#X connect 6 1 30 0;
#X connect 7 0 5 0;
#X connect 8 0 25 0;
#X connect 11 0 4 0;
#X connect 12 0 11 0;
#X connect 21 0 40 0;
#X connect 23 0 1 0;
#X connect 26 0 33 0;
#X connect 27 0 1 0;
#X connect 28 0 32 0;
#X connect 29 0 32 0;
#X connect 30 0 29 0;
#X connect 31 0 29 0;
#X connect 33 0 28 0;
#X connect 33 1 29 0;
#X connect 35 0 5 0;
#X connect 36 0 39 0;
#X connect 36 0 44 0;
#X connect 37 0 36 0;
#X connect 38 0 36 1;
#X connect 39 0 12 0;
#X connect 40 0 13 0;
#X connect 40 1 14 0;
#X connect 40 2 15 0;
#X connect 40 3 16 0;
#X connect 40 4 17 0;
#X connect 40 5 18 0;
#X connect 40 6 22 0;
#X connect 40 7 19 0;
#X connect 40 8 20 0;
#X connect 40 9 34 0;
#X connect 40 10 34 1;
#X connect 40 11 34 2;
#X connect 40 12 34 3;
#X connect 40 13 34 4;
#X connect 40 14 34 5;
#X connect 40 15 34 6;
#X connect 40 16 34 7;
#X connect 42 0 8 0;
#X connect 43 0 42 0;
#X connect 44 0 43 0;
