#N canvas 293 22 882 545 10;
#X obj 59 -64 cnv 15 650 145 empty empty empty 20 12 0 14 -233017 -66577
0;
#X obj 344 177 tgl 40 0 empty empty empty 17 7 0 10 -262144 -1 -1 0
1;
#X obj 354 134 loadbang;
#X obj 58 82 cnv 15 650 10 empty empty INPUTS 100 -120 0 46 -261234
-66577 0;
#X obj 535 288 *~;
#X obj 344 271 vline~;
#X obj 345 229 sel 1 0;
#X msg 383 252 0 1000;
#X obj 605 288 *~;
#X obj 535 258 clip~ -1 1;
#X obj 535 232 hip~ 3;
#X obj 605 257 clip~ -1 1;
#X obj 605 232 hip~ 3;
#X obj 535 208 *~ 2;
#X obj 605 206 *~ 2;
#X obj 118 -55 inlet;
#X obj 344 112 r \$0-touchIO;
#X obj 535 338 outlet~;
#X obj 605 340 outlet~;
#X obj 396 -52 inlet;
#X msg 354 155 1;
#X msg 345 305 1;
#X msg 374 302 0;
#X obj 401 276 delay 505;
#X obj 345 331 switch~;
#X obj 402 302 loadbang;
#X obj 396 227 sel 2;
#X obj 50 65 s \$0-accelerometerX;
#X obj 65 82 s \$0-accelerometerY;
#X obj 80 99 s \$0-accelerometerZ;
#X obj 179 64 s \$0-gyroscopeX;
#X obj 193 81 s \$0-gyroscopeY;
#X obj 209 99 s \$0-gyroscopeZ;
#X obj 321 76 s \$0-touchPositionX;
#X obj 330 53 s \$0-touchPositionY;
#X obj 241 44 s \$0-touchIO;
#N canvas 300 385 450 300 tuning 0;
#X obj 54 -21 inlet;
#X obj 88 17 inlet;
#X obj 139 -18 inlet;
#X obj 173 20 inlet;
#X obj 220 -11 inlet;
#X obj 254 27 inlet;
#X obj 290 -13 inlet;
#X obj 324 25 inlet;
#X obj 60 218 s \$0-tune1x;
#X obj 91 241 s \$0-tune1y;
#X obj 139 220 s \$0-tune2x;
#X obj 170 243 s \$0-tune2y;
#X obj 218 213 s \$0-tune3x;
#X obj 249 236 s \$0-tune3y;
#X obj 300 213 s \$0-tune4x;
#X obj 331 236 s \$0-tune4y;
#X connect 0 0 8 0;
#X connect 1 0 9 0;
#X connect 2 0 10 0;
#X connect 3 0 11 0;
#X connect 4 0 12 0;
#X connect 5 0 13 0;
#X connect 6 0 14 0;
#X connect 7 0 15 0;
#X restore 496 36 pd tuning;
#N canvas 152 75 831 444 GREEN_onbody 0;
#X obj 148 -22 outlet~;
#X obj 151 -47 rev3~ 90 70;
#X obj 123 -390 r \$0-touchPositionY;
#X obj 2 -389 r \$0-touchPositionX;
#X obj 252 -389 r \$0-gyroscopeX;
#X obj 351 -391 r \$0-gyroscopeY;
#X obj 455 -389 r \$0-gyroscopeZ;
#X obj 560 -364 sopiscale 0 10 -1 1;
#X obj 563 -343 int;
#X obj 687 -363 sopiscale 0 10 -1 1;
#X obj 687 -339 int;
#X text 296 -195 GREEN ONBODY SOUND MODULE;
#X text 269 -302 Tuning module is in 4p_adapt_subsynth / 4pointWeighted
subpatch and in 4p_adapt_subsynth / SOPIu_sub;
#X text 297 -176 This sound module is a pulse width modulation [PWM]
and squarewave generator for audio synthesis controlled through touch
input and accelerometer data. The 4 point weighted mapping strategy
is described in the following paper:;
#X text 265 -318 <<-- 4 point weighted mapping in tuning module;
#X obj 154 -89 *~ 0.5;
#N canvas 511 156 614 506 4p_adapt_subsynth 0;
#N canvas 432 336 801 407 4pointWeighted 0;
#X obj 1 -2 +;
#X obj 44 -1 f;
#X obj -9 94 /;
#X obj -9 50 t b f;
#X obj -9 25 f;
#X obj -28 167 *;
#X obj -28 142 unpack f f f f;
#X obj 2 167 *;
#X obj 32 167 *;
#X obj 62 167 *;
#X msg 62 -31 0;
#X obj -29 -86 t b b b b;
#X obj 1 -32 list-drip;
#X obj 156 -9 pow 2;
#X obj 198 -13 pow 2;
#X obj 175 11 +;
#X obj 175 32 sqrt;
#X obj 495 -34 pow 2;
#X obj 534 -34 pow 2;
#X obj 515 -15 +;
#X obj 514 7 sqrt;
#X obj 159 52 -;
#X obj 159 73 abs;
#X floatatom 226 133 5 0 0 0 - - -;
#N canvas 713 428 214 209 tabadappnt 0;
#X obj 24 3 inlet;
#X obj 24 28 t b b b b;
#X msg 12 51 0;
#X msg 40 51 1;
#X msg 68 53 2;
#X msg 96 54 3;
#X obj 30 152 pack 0 0 0 0;
#X obj 31 186 outlet;
#X obj 11 73 tabread \$0-adappnt;
#X obj 39 95 tabread \$0-adappnt;
#X obj 73 112 tabread \$0-adappnt;
#X obj 99 128 tabread \$0-adappnt;
#X connect 0 0 1 0;
#X connect 1 0 2 0;
#X connect 1 1 3 0;
#X connect 1 2 4 0;
#X connect 1 3 5 0;
#X connect 2 0 8 0;
#X connect 3 0 9 0;
#X connect 4 0 10 0;
#X connect 5 0 11 0;
#X connect 6 0 7 0;
#X connect 8 0 6 0;
#X connect 9 0 6 1;
#X connect 10 0 6 2;
#X connect 11 0 6 3;
#X restore 5 -56 pd tabadappnt;
#N canvas 502 394 214 209 tabadappnt 0;
#X obj 24 3 inlet;
#X obj 24 28 t b b b b;
#X msg 12 51 0;
#X msg 40 51 1;
#X msg 68 53 2;
#X msg 96 54 3;
#X obj 30 152 pack 0 0 0 0;
#X obj 31 186 outlet;
#X obj 12 73 tabread \$0-adappnt;
#X obj 39 95 tabread \$0-adappnt;
#X obj 73 112 tabread \$0-adappnt;
#X obj 99 128 tabread \$0-adappnt;
#X connect 0 0 1 0;
#X connect 1 0 2 0;
#X connect 1 1 3 0;
#X connect 1 2 4 0;
#X connect 1 3 5 0;
#X connect 2 0 8 0;
#X connect 3 0 9 0;
#X connect 4 0 10 0;
#X connect 5 0 11 0;
#X connect 6 0 7 0;
#X connect 8 0 6 0;
#X connect 9 0 6 1;
#X connect 10 0 6 2;
#X connect 11 0 6 3;
#X restore -28 121 pd tabadappnt;
#X obj 242 -9 pow 2;
#X obj 279 -9 pow 2;
#X obj 261 11 +;
#X obj 261 32 sqrt;
#X obj 245 52 -;
#X obj 245 73 abs;
#X obj 326 -9 pow 2;
#X obj 363 -9 pow 2;
#X obj 345 11 +;
#X obj 345 32 sqrt;
#X obj 329 52 -;
#X obj 329 73 abs;
#X obj 410 -9 pow 2;
#X obj 447 -9 pow 2;
#X obj 429 11 +;
#X obj 429 32 sqrt;
#X obj 413 52 -;
#X obj 413 73 abs;
#X obj -28 190 s \$0-wth1;
#X obj 2 210 s \$0-wth2;
#X obj 32 231 s \$0-wth3;
#X obj 62 188 s \$0-wth4;
#X obj 121 32 r \$0-pos;
#X obj 207 32 r \$0-pos;
#X obj 292 32 r \$0-pos;
#X obj 376 32 r \$0-pos;
#X obj 513 26 s \$0-pos;
#X obj -29 -110 r \$0-weigh;
#N canvas 12 31 641 382 vandistcheck 0;
#X obj 225 168 outlet;
#X obj 136 -32 inlet;
#X obj 192 -31 inlet;
#X obj 275 -33 inlet;
#X obj 353 -31 inlet;
#X obj 303 170 abs;
#X obj 304 192 t b f;
#X obj 261 118 f;
#X obj 286 118 f;
#X obj 310 118 f;
#X obj 338 119 f;
#X obj 261 91 sel 0 1 2 3;
#X obj 193 94 sel 10;
#X obj 303 243 s \$0-weigh;
#N canvas 0 22 450 300 4input 0;
#X obj 29 8 inlet;
#X obj 93 12 inlet;
#X obj 150 19 inlet;
#X obj 234 18 inlet;
#X obj 148 241 outlet;
#X obj 44 57 <;
#X obj 44 129 sel 0 1;
#X msg 45 159 10;
#X obj 86 56 <;
#X obj 147 59 <;
#X obj 87 94 f;
#X obj 109 129 sel 0 1;
#X obj 155 90 f;
#X msg 111 160 10;
#X obj 166 132 sel 0 1;
#X msg 168 163 10;
#X msg 199 160 0;
#X connect 0 0 5 0;
#X connect 0 0 8 0;
#X connect 0 0 9 0;
#X connect 1 0 5 1;
#X connect 2 0 8 1;
#X connect 3 0 9 1;
#X connect 5 0 6 0;
#X connect 6 0 7 0;
#X connect 6 1 10 0;
#X connect 7 0 4 0;
#X connect 8 0 10 1;
#X connect 9 0 12 1;
#X connect 10 0 11 0;
#X connect 11 0 13 0;
#X connect 11 1 12 0;
#X connect 12 0 14 0;
#X connect 13 0 4 0;
#X connect 14 0 15 0;
#X connect 14 1 16 0;
#X connect 15 0 4 0;
#X connect 16 0 4 0;
#X restore 137 30 pd 4input;
#N canvas 0 22 450 300 4input 0;
#X obj 29 8 inlet;
#X obj 93 12 inlet;
#X obj 150 19 inlet;
#X obj 234 18 inlet;
#X obj 148 241 outlet;
#X obj 44 57 <;
#X obj 44 129 sel 0 1;
#X msg 45 159 10;
#X obj 86 56 <;
#X obj 147 59 <;
#X obj 87 94 f;
#X obj 109 129 sel 0 1;
#X obj 155 90 f;
#X msg 111 160 10;
#X obj 166 132 sel 0 1;
#X msg 168 163 10;
#X msg 199 160 1;
#X connect 0 0 5 0;
#X connect 0 0 8 0;
#X connect 0 0 9 0;
#X connect 1 0 5 1;
#X connect 2 0 8 1;
#X connect 3 0 9 1;
#X connect 5 0 6 0;
#X connect 6 0 7 0;
#X connect 6 1 10 0;
#X connect 7 0 4 0;
#X connect 8 0 10 1;
#X connect 9 0 12 1;
#X connect 10 0 11 0;
#X connect 11 0 13 0;
#X connect 11 1 12 0;
#X connect 12 0 14 0;
#X connect 13 0 4 0;
#X connect 14 0 15 0;
#X connect 14 1 16 0;
#X connect 15 0 4 0;
#X connect 16 0 4 0;
#X restore 198 30 pd 4input;
#N canvas 0 22 450 300 4input 0;
#X obj 29 8 inlet;
#X obj 93 12 inlet;
#X obj 150 19 inlet;
#X obj 234 18 inlet;
#X obj 148 241 outlet;
#X obj 44 57 <;
#X obj 44 129 sel 0 1;
#X msg 45 159 10;
#X obj 86 56 <;
#X obj 147 59 <;
#X obj 87 94 f;
#X obj 109 129 sel 0 1;
#X obj 155 90 f;
#X msg 111 160 10;
#X obj 166 132 sel 0 1;
#X msg 168 163 10;
#X msg 190 162 2;
#X connect 0 0 5 0;
#X connect 0 0 8 0;
#X connect 0 0 9 0;
#X connect 1 0 5 1;
#X connect 2 0 8 1;
#X connect 3 0 9 1;
#X connect 5 0 6 0;
#X connect 6 0 7 0;
#X connect 6 1 10 0;
#X connect 7 0 4 0;
#X connect 8 0 10 1;
#X connect 9 0 12 1;
#X connect 10 0 11 0;
#X connect 11 0 13 0;
#X connect 11 1 12 0;
#X connect 12 0 14 0;
#X connect 13 0 4 0;
#X connect 14 0 15 0;
#X connect 14 1 16 0;
#X connect 15 0 4 0;
#X connect 16 0 4 0;
#X restore 259 31 pd 4input;
#N canvas 0 22 450 300 4input 0;
#X obj 29 8 inlet;
#X obj 93 12 inlet;
#X obj 150 19 inlet;
#X obj 234 18 inlet;
#X obj 148 241 outlet;
#X obj 44 57 <;
#X obj 44 129 sel 0 1;
#X msg 45 159 10;
#X obj 86 56 <;
#X obj 147 59 <;
#X obj 87 94 f;
#X obj 109 129 sel 0 1;
#X obj 155 90 f;
#X msg 111 160 10;
#X obj 166 132 sel 0 1;
#X msg 168 163 10;
#X msg 199 160 3;
#X connect 0 0 5 0;
#X connect 0 0 8 0;
#X connect 0 0 9 0;
#X connect 1 0 5 1;
#X connect 2 0 8 1;
#X connect 3 0 9 1;
#X connect 5 0 6 0;
#X connect 6 0 7 0;
#X connect 6 1 10 0;
#X connect 7 0 4 0;
#X connect 8 0 10 1;
#X connect 9 0 12 1;
#X connect 10 0 11 0;
#X connect 11 0 13 0;
#X connect 11 1 12 0;
#X connect 12 0 14 0;
#X connect 13 0 4 0;
#X connect 14 0 15 0;
#X connect 14 1 16 0;
#X connect 15 0 4 0;
#X connect 16 0 4 0;
#X restore 323 28 pd 4input;
#X obj 303 146 - 452;
#X obj 332 218 tabwrite \$0-adappnt;
#X connect 1 0 7 1;
#X connect 1 0 14 0;
#X connect 1 0 15 1;
#X connect 1 0 16 1;
#X connect 1 0 17 1;
#X connect 2 0 8 1;
#X connect 2 0 14 1;
#X connect 2 0 15 0;
#X connect 2 0 16 2;
#X connect 2 0 17 2;
#X connect 3 0 9 1;
#X connect 3 0 14 2;
#X connect 3 0 15 2;
#X connect 3 0 16 0;
#X connect 3 0 17 3;
#X connect 4 0 10 1;
#X connect 4 0 14 3;
#X connect 4 0 15 3;
#X connect 4 0 16 3;
#X connect 4 0 17 0;
#X connect 5 0 6 0;
#X connect 6 0 13 0;
#X connect 6 1 19 0;
#X connect 7 0 18 0;
#X connect 8 0 18 0;
#X connect 9 0 18 0;
#X connect 10 0 18 0;
#X connect 11 0 7 0;
#X connect 11 1 8 0;
#X connect 11 2 9 0;
#X connect 11 3 10 0;
#X connect 12 1 0 0;
#X connect 12 1 19 1;
#X connect 14 0 11 0;
#X connect 14 0 12 0;
#X connect 15 0 12 0;
#X connect 15 0 11 0;
#X connect 16 0 12 0;
#X connect 16 0 11 0;
#X connect 17 0 12 0;
#X connect 17 0 11 0;
#X connect 18 0 5 0;
#X restore 226 107 pd vandistcheck;
#X msg -10 72 1;
#X obj 153 -34 pipe 50;
#X obj 236 -38 pipe 50;
#X obj 325 -29 pipe 50;
#X obj 401 -43 pipe 50;
#X obj 320 -104 inlet touchPositionX;
#X obj 452 -106 inlet touchPositionY;
#N canvas 317 351 638 329 tuning------------ 0;
#X obj 9 -186 int;
#X obj 82 -188 int;
#X obj 160 -187 int;
#X obj 236 -190 int;
#X obj 308 -197 int;
#X obj 382 -195 int;
#X obj 458 -200 int;
#X obj 536 -201 int;
#X obj 9 -159 outlet;
#X obj 82 -163 outlet;
#X obj 161 -165 outlet;
#X obj 236 -166 outlet;
#X obj 308 -173 outlet;
#X obj 382 -172 outlet;
#X obj 458 -176 outlet;
#X obj 536 -179 outlet;
#X text 161 -117 Tuning is an important feature in PESI On_Body \,
you can set and save pre-settings for your sound modules.;
#X obj 7 -271 sopiscale 0 10 0 320;
#X obj 82 -224 sopiscale 0 10 0 480;
#X obj 160 -251 sopiscale 0 10 0 320;
#X obj 308 -270 sopiscale 0 10 0 320;
#X obj 459 -268 sopiscale 0 10 0 320;
#X obj 236 -220 sopiscale 0 10 0 480;
#X obj 382 -242 sopiscale 0 10 0 480;
#X obj 528 -230 sopiscale 0 10 0 480;
#X text 162 -80 Each sound module in the PESI mobile instrument can
be tuned through a 4-point tuning interface \, which assigns to the
sound module with a parameter pre-set. The vector values for each points
are mapped to parameters which cannot be modified any other way.;
#X obj 5 -296 r \$0-tune1x;
#X obj 82 -297 r \$0-tune1y;
#X obj 534 -300 r \$0-tune4y;
#X obj 459 -296 r \$0-tune4x;
#X obj 382 -294 r \$0-tune3y;
#X obj 308 -294 r \$0-tune3x;
#X obj 235 -296 r \$0-tune2y;
#X obj 160 -296 r \$0-tune2x;
#X connect 0 0 8 0;
#X connect 1 0 9 0;
#X connect 2 0 10 0;
#X connect 3 0 11 0;
#X connect 4 0 12 0;
#X connect 5 0 13 0;
#X connect 6 0 14 0;
#X connect 7 0 15 0;
#X connect 17 0 0 0;
#X connect 18 0 1 0;
#X connect 19 0 2 0;
#X connect 20 0 4 0;
#X connect 21 0 6 0;
#X connect 22 0 3 0;
#X connect 23 0 5 0;
#X connect 24 0 7 0;
#X connect 26 0 17 0;
#X connect 27 0 18 0;
#X connect 28 0 24 0;
#X connect 29 0 21 0;
#X connect 30 0 23 0;
#X connect 31 0 20 0;
#X connect 32 0 22 0;
#X connect 33 0 19 0;
#X restore 158 -103 pd tuning------------;
#X text -28 249 The Weight calculation is modified from the original
patch by Tim Vets;
#X text 361 106 Once the 4-points are set in the tuning module \, this
abstract continuously compares the vector position of the touch input
with the vector position of each point and outputs the closest point
id and the distance value. The weighted average values are calculated
based in this distance data and mapped to the frequency parameters
of four pulse width modulation and squarewave generators. More about
this mapping;
#X text 363 213 http://www.uni-weimar.de/medien/wiki/images/Tahiroglu_pd11_19_07.pdf
;
#X obj 31 -87 table \$0-adappnt 4;
#X connect 0 0 1 0;
#X connect 0 0 4 1;
#X connect 1 0 0 1;
#X connect 2 0 5 1;
#X connect 2 0 7 1;
#X connect 2 0 8 1;
#X connect 2 0 9 1;
#X connect 3 0 55 0;
#X connect 3 1 2 1;
#X connect 4 0 3 0;
#X connect 5 0 44 0;
#X connect 6 0 5 0;
#X connect 6 1 7 0;
#X connect 6 2 8 0;
#X connect 6 3 9 0;
#X connect 7 0 45 0;
#X connect 8 0 46 0;
#X connect 9 0 47 0;
#X connect 10 0 0 1;
#X connect 11 0 25 0;
#X connect 11 1 4 0;
#X connect 11 2 24 0;
#X connect 11 3 10 0;
#X connect 12 0 0 0;
#X connect 13 0 15 0;
#X connect 14 0 15 1;
#X connect 15 0 16 0;
#X connect 16 0 21 1;
#X connect 17 0 19 0;
#X connect 18 0 19 1;
#X connect 19 0 20 0;
#X connect 20 0 52 0;
#X connect 21 0 22 0;
#X connect 22 0 54 0;
#X connect 24 0 12 0;
#X connect 25 0 6 0;
#X connect 26 0 28 0;
#X connect 27 0 28 1;
#X connect 28 0 29 0;
#X connect 29 0 30 1;
#X connect 30 0 31 0;
#X connect 31 0 54 1;
#X connect 32 0 34 0;
#X connect 33 0 34 1;
#X connect 34 0 35 0;
#X connect 35 0 36 1;
#X connect 36 0 37 0;
#X connect 37 0 54 2;
#X connect 38 0 40 0;
#X connect 39 0 40 1;
#X connect 40 0 41 0;
#X connect 41 0 42 1;
#X connect 42 0 43 0;
#X connect 43 0 54 3;
#X connect 48 0 21 0;
#X connect 49 0 30 0;
#X connect 50 0 36 0;
#X connect 51 0 42 0;
#X connect 53 0 11 0;
#X connect 54 0 23 0;
#X connect 55 0 2 0;
#X connect 56 0 13 0;
#X connect 57 0 26 0;
#X connect 58 0 32 0;
#X connect 59 0 38 0;
#X connect 60 0 17 0;
#X connect 61 0 18 0;
#X connect 62 0 56 0;
#X connect 62 1 14 0;
#X connect 62 2 57 0;
#X connect 62 3 27 0;
#X connect 62 4 58 0;
#X connect 62 5 33 0;
#X connect 62 6 59 0;
#X connect 62 7 39 0;
#X restore 19 -242 pd 4pointWeighted;
#X obj 54 -50 *~ 10;
#X obj 94 -50 *~ 10;
#X obj 76 -198 r \$0-wth2;
#X obj 13 -199 r \$0-wth1;
#X obj 132 -200 r \$0-wth3;
#X obj 131 32 *~ 10;
#X obj 171 32 *~ 10;
#X obj 24 126 outlet~;
#X obj 97 122 outlet~;
#X obj 43 -113 *~ 0.8;
#X obj 131 -45 *~ 0.8;
#X obj 21 -49 *~ 3;
#X obj 98 33 *~ 3;
#X obj 54 -73 rev3~ 90 70;
#X obj 131 9 rev3~ 90 70;
#X obj 23 98 *~ 0.8;
#X obj 97 96 *~ 0.8;
#X obj 19 -273 inlet touchPositionX;
#X obj 148 -274 inlet touchPositionY;
#X obj 281 -273 inlet accX;
#X obj 352 -273 inlet accY;
#X obj 169 118 outlet vib;
#X obj 203 -207 r \$0-wth4;
#X text 134 -240 <<-- weighted sum mapping;
#X text 116 -163 <<-- audio synthesis with pulse width modulation and
squarewave generator;
#N canvas 358 88 759 602 SOPIu_sub 0;
#X obj -33 243 rpole~ 0.93538;
#X obj -34 283 cpole~ 0.96559 0.05592;
#X obj -34 304 cpole~ 0.96559 -0.05592;
#X obj -34 333 *~ 0.125;
#X obj -34 378 rzero~ -1;
#X obj -26 401 rzero~ -1;
#X obj -16 459 outlet~;
#X floatatom 144 23 5 0 0 1 f0 - -;
#X obj 148 -33 inlet;
#X obj -35 198 +~;
#X obj 8 65 * 1.01;
#X obj 55 63 * 1.03;
#X obj 236 190 -~;
#X obj 53 193 -~;
#X obj 141 189 +~;
#X obj 225 96 * 4.02;
#X obj 98 55 * 16.02;
#X obj 321 106 tgl 15 0 empty empty empty 17 7 0 10 -262144 -1 -1 1
1;
#X obj 322 64 loadbang;
#X msg 321 83 1;
#X text 223 -52 sub synth;
#X obj 96 121 SOPIu_pwm 444;
#X obj -33 224 *~ 0.034;
#X obj 149 -12 abs;
#X obj -33 262 *~ 0.00431;
#X obj -35 121 SOPIu_square 440;
#X obj 52 121 SOPIu_square 440;
#X obj 141 121 SOPIu_square 440;
#X obj 228 121 SOPIu_square 440;
#X obj -30 -34 inlet;
#X obj 12 -33 inlet;
#X obj 57 -34 inlet;
#X obj 101 -36 inlet;
#X obj -30 34 t b f;
#X obj 13 33 t b f;
#X obj 56 35 t b f;
#X obj 99 33 t b f;
#X obj -29 64 * 1;
#X floatatom -18 86 5 0 0 0 - - -;
#X floatatom 23 90 5 0 0 0 - - -;
#X floatatom 67 90 5 0 0 0 - - -;
#X floatatom 104 88 7 0 0 0 - - -;
#X obj 57 -5 * 1.03;
#X obj 99 14 + 1.2;
#X obj -30 14 + 0.7;
#X obj 57 15 + 0.7;
#X obj 13 -6 * 2.4;
#X obj 13 13 + 1;
#N canvas 787 323 450 300 acczonePITCH 0;
#X obj 192 123 sel 0 1 2 3 4 5 6;
#X msg 238 150 810;
#X floatatom 247 104 5 0 0 0 - - -;
#X obj 227 245 outlet;
#X obj 195 87 change;
#X msg 177 149 1300;
#X msg 304 151 270;
#X obj 144 114 line;
#X floatatom 96 179 5 0 0 0 - - -;
#X msg 143 94 \$1 2;
#X msg 138 149 2000;
#X msg 208 150 1000;
#X msg 266 151 540;
#X msg 342 150 90;
#X obj 203 62 inlet;
#X obj 336 242 outlet vib;
#X connect 0 0 10 0;
#X connect 0 1 5 0;
#X connect 0 2 11 0;
#X connect 0 3 1 0;
#X connect 0 4 12 0;
#X connect 0 5 6 0;
#X connect 0 6 13 0;
#X connect 1 0 3 0;
#X connect 4 0 9 0;
#X connect 5 0 3 0;
#X connect 6 0 3 0;
#X connect 7 0 0 0;
#X connect 7 0 8 0;
#X connect 9 0 7 0;
#X connect 10 0 3 0;
#X connect 10 0 15 0;
#X connect 11 0 3 0;
#X connect 12 0 3 0;
#X connect 13 0 3 0;
#X connect 13 0 15 0;
#X connect 14 0 2 0;
#X connect 14 0 4 0;
#X restore 416 -3 pd acczonePITCH;
#X obj 99 -6 * 42.6;
#X obj 9 121 SOPIu_pwm 444;
#X obj 185 121 SOPIu_pwm 444;
#X obj 272 121 SOPIu_pwm 444;
#X obj 141 98 * 2.01;
#X obj 184 97 * 5.03;
#X obj 268 96 * 8.02;
#N canvas 478 464 450 300 acczoneROL 0;
#X obj 196 140 sel 0 1 2 3 4 5 6;
#X floatatom 251 121 5 0 0 0 - - -;
#X obj 231 262 outlet;
#X obj 196 71 change;
#X obj 195 115 line;
#X msg 181 176 540;
#X msg 240 182 1000;
#X msg 196 95 \$1 3;
#X msg 153 166 270;
#X msg 210 179 810;
#X msg 271 180 1300;
#X msg 346 167 2500;
#X msg 308 168 2000;
#X obj 196 36 inlet;
#X obj 346 258 outlet vib;
#X connect 0 0 8 0;
#X connect 0 1 5 0;
#X connect 0 2 9 0;
#X connect 0 3 6 0;
#X connect 0 4 10 0;
#X connect 0 5 12 0;
#X connect 0 6 11 0;
#X connect 3 0 7 0;
#X connect 4 0 0 0;
#X connect 5 0 2 0;
#X connect 6 0 2 0;
#X connect 7 0 4 0;
#X connect 8 0 2 0;
#X connect 8 0 14 0;
#X connect 9 0 2 0;
#X connect 10 0 2 0;
#X connect 11 0 2 0;
#X connect 11 0 14 0;
#X connect 12 0 2 0;
#X connect 13 0 1 0;
#X connect 13 0 3 0;
#X restore 330 -5 pd acczoneROL;
#X obj -30 -6 * 1.1;
#X obj 191 242 rpole~ 0.93538;
#X obj 191 281 cpole~ 0.96559 0.05592;
#X obj 191 302 cpole~ 0.96559 -0.05592;
#X obj 191 340 *~ 0.125;
#X obj 191 362 rzero~ -1;
#X obj 191 385 rzero~ -1;
#X obj 191 408 rzero~ -1;
#X obj 193 450 outlet~;
#X obj 191 222 *~ 0.034;
#X obj 191 261 *~ 0.00431;
#X obj -34 355 rzero~ -1;
#X obj -14 430 *~ 1.5;
#X obj 195 429 *~ 1.5;
#X obj 329 -34 inlet accX;
#X obj 413 -32 inlet accY;
#X obj 260 40 * 1;
#X obj 262 67 * 1;
#N canvas 533 471 590 294 tuning------------ 0;
#X obj 9 -154 int;
#X obj 9 -127 outlet;
#X obj 183 -132 outlet;
#X obj 344 -141 outlet;
#X obj 511 -179 outlet;
#X text 161 -117 Tuning is an important feature in PESI On_Body \,
you can set and save pre-settings for your sound modules.;
#X obj 48 -271 pow 2;
#X obj 87 -271 pow 2;
#X obj 68 -252 +;
#X obj 67 -230 sqrt;
#X obj 197 -266 pow 2;
#X obj 236 -266 pow 2;
#X obj 217 -247 +;
#X obj 216 -225 sqrt;
#X obj 182 -195 sopiscale 1 4 0 551;
#X obj 323 -266 pow 2;
#X obj 362 -266 pow 2;
#X obj 343 -247 +;
#X obj 342 -225 sqrt;
#X obj 308 -195 sopiscale 1 5 0 551;
#X obj 471 -271 pow 2;
#X obj 510 -271 pow 2;
#X obj 491 -252 +;
#X obj 490 -230 sqrt;
#X obj 9 -193 sopiscale 0 2000 0 500;
#X obj 456 -200 sopiscale 1 8 0 551;
#X obj 12 -300 r \$0-tune1x;
#X obj 95 -297 r \$0-tune1y;
#X obj 160 -296 r \$0-tune2x;
#X obj 227 -296 r \$0-tune2y;
#X obj 300 -294 r \$0-tune3x;
#X obj 357 -294 r \$0-tune3y;
#X obj 434 -296 r \$0-tune4x;
#X obj 509 -297 r \$0-tune4y;
#X connect 0 0 1 0;
#X connect 6 0 8 0;
#X connect 7 0 8 1;
#X connect 8 0 9 0;
#X connect 9 0 24 0;
#X connect 10 0 12 0;
#X connect 11 0 12 1;
#X connect 12 0 13 0;
#X connect 13 0 14 0;
#X connect 14 0 2 0;
#X connect 15 0 17 0;
#X connect 16 0 17 1;
#X connect 17 0 18 0;
#X connect 18 0 19 0;
#X connect 19 0 3 0;
#X connect 20 0 22 0;
#X connect 21 0 22 1;
#X connect 22 0 23 0;
#X connect 23 0 25 0;
#X connect 24 0 0 0;
#X connect 25 0 4 0;
#X connect 26 0 6 0;
#X connect 27 0 7 0;
#X connect 28 0 10 0;
#X connect 29 0 11 0;
#X connect 30 0 15 0;
#X connect 31 0 16 0;
#X connect 32 0 20 0;
#X connect 33 0 21 0;
#X restore 189 -36 pd tuning------------;
#X obj 465 440 outlet;
#X msg 466 411 bang;
#X text 283 190 the tuning module sets the initial frequency values
\, multiplied layers of accelerometer X and Y values and range of the
last pwm frequency module;
#X connect 0 0 24 0;
#X connect 1 0 2 0;
#X connect 1 1 2 3;
#X connect 2 0 3 0;
#X connect 3 0 68 0;
#X connect 4 0 5 0;
#X connect 5 0 69 0;
#X connect 7 0 10 0;
#X connect 7 0 11 0;
#X connect 7 0 15 0;
#X connect 7 0 16 0;
#X connect 7 0 37 0;
#X connect 7 0 53 0;
#X connect 7 0 54 0;
#X connect 7 0 55 0;
#X connect 8 0 23 0;
#X connect 9 0 22 0;
#X connect 10 0 39 0;
#X connect 10 0 50 0;
#X connect 11 0 40 0;
#X connect 11 0 26 0;
#X connect 12 0 66 0;
#X connect 13 0 66 0;
#X connect 14 0 22 0;
#X connect 15 0 28 0;
#X connect 16 0 21 0;
#X connect 16 0 41 0;
#X connect 17 0 21 1;
#X connect 17 0 25 1;
#X connect 17 0 26 1;
#X connect 17 0 27 1;
#X connect 17 0 28 1;
#X connect 17 0 50 1;
#X connect 17 0 51 1;
#X connect 17 0 52 1;
#X connect 18 0 19 0;
#X connect 19 0 17 0;
#X connect 21 0 13 1;
#X connect 22 0 0 0;
#X connect 23 0 7 0;
#X connect 24 0 1 0;
#X connect 25 0 9 0;
#X connect 26 0 13 0;
#X connect 27 0 14 0;
#X connect 28 0 12 0;
#X connect 29 0 57 0;
#X connect 30 0 46 0;
#X connect 31 0 42 0;
#X connect 32 0 49 0;
#X connect 33 0 37 0;
#X connect 33 1 37 1;
#X connect 34 0 10 0;
#X connect 34 1 10 1;
#X connect 35 0 11 0;
#X connect 35 1 11 1;
#X connect 36 0 16 0;
#X connect 36 1 16 1;
#X connect 37 0 38 0;
#X connect 37 0 25 0;
#X connect 42 0 45 0;
#X connect 43 0 36 0;
#X connect 44 0 33 0;
#X connect 45 0 35 0;
#X connect 46 0 47 0;
#X connect 47 0 34 0;
#X connect 48 0 74 0;
#X connect 48 1 77 0;
#X connect 49 0 43 0;
#X connect 50 0 9 1;
#X connect 51 0 14 1;
#X connect 52 0 12 1;
#X connect 53 0 27 0;
#X connect 54 0 51 0;
#X connect 55 0 52 0;
#X connect 56 0 73 0;
#X connect 56 1 77 0;
#X connect 57 0 44 0;
#X connect 58 0 67 0;
#X connect 59 0 60 0;
#X connect 59 1 60 3;
#X connect 60 0 61 0;
#X connect 61 0 62 0;
#X connect 62 0 63 0;
#X connect 63 0 64 0;
#X connect 64 0 70 0;
#X connect 66 0 58 0;
#X connect 67 0 59 0;
#X connect 68 0 4 0;
#X connect 69 0 6 0;
#X connect 70 0 65 0;
#X connect 71 0 56 0;
#X connect 72 0 48 0;
#X connect 73 0 10 0;
#X connect 74 0 11 0;
#X connect 75 0 7 0;
#X connect 75 1 73 1;
#X connect 75 2 74 1;
#X connect 75 3 55 1;
#X connect 77 0 76 0;
#X restore 20 -149 pd SOPIu_sub;
#X connect 1 0 16 0;
#X connect 2 0 16 0;
#X connect 3 0 26 1;
#X connect 4 0 26 0;
#X connect 5 0 26 2;
#X connect 6 0 17 0;
#X connect 7 0 17 0;
#X connect 10 0 12 0;
#X connect 10 0 14 0;
#X connect 11 0 13 0;
#X connect 11 0 15 0;
#X connect 12 0 16 0;
#X connect 13 0 17 0;
#X connect 14 0 1 0;
#X connect 14 1 2 0;
#X connect 15 0 6 0;
#X connect 15 1 7 0;
#X connect 16 0 8 0;
#X connect 17 0 9 0;
#X connect 18 0 0 0;
#X connect 19 0 0 1;
#X connect 20 0 26 5;
#X connect 21 0 26 6;
#X connect 23 0 26 3;
#X connect 26 0 10 0;
#X connect 26 1 11 0;
#X restore 58 -276 pd 4p_adapt_subsynth;
#X obj 560 -387 r \$0-accelerometerX;
#X obj 687 -388 r \$0-accelerometerY;
#X connect 1 0 0 0;
#X connect 1 1 0 0;
#X connect 1 2 0 0;
#X connect 1 3 0 0;
#X connect 2 0 16 1;
#X connect 3 0 16 0;
#X connect 7 0 8 0;
#X connect 8 0 16 2;
#X connect 9 0 10 0;
#X connect 10 0 16 3;
#X connect 15 0 1 0;
#X connect 15 0 1 1;
#X connect 16 0 15 0;
#X connect 16 1 15 0;
#X connect 17 0 7 0;
#X connect 18 0 9 0;
#X restore 535 140 pd GREEN_onbody;
#X obj 541 62 inlet dist1;
#X obj 635 60 inlet dist2;
#X obj 535 165 fx;
#N canvas 29 160 246 311 exponential 0;
#X obj 35 222 exponential_curve;
#X obj 36 69 inlet;
#X obj 35 249 outlet;
#X obj 135 173 loadbang;
#X msg 135 195 0.18367;
#X connect 0 0 2 0;
#X connect 1 0 0 0;
#X connect 3 0 4 0;
#X connect 4 0 0 1;
#X restore 541 85 pd exponential;
#N canvas 29 160 219 322 exponential 0;
#X obj 35 222 exponential_curve;
#X obj 32 60 inlet;
#X obj 34 245 outlet;
#X obj 133 169 loadbang;
#X msg 133 192 0.18367;
#X connect 0 0 2 0;
#X connect 1 0 0 0;
#X connect 3 0 4 0;
#X connect 4 0 0 1;
#X restore 635 84 pd exponential;
#X obj 564 166 rev3~ 90;
#X obj 636 129 sopiscale 60 105 0 1;
#X obj 541 108 sopiscale 0 124 0 1;
#X obj 118 -7 route accelx accely accelz gyrox gyroy gyroz touchIO
touchx touchy tune1x tune1y tune2x tune2y tune3x tune3y tune4x tune4y
;
#X obj 66 438 cnv 15 650 10 empty empty SOUND_MODULE_GREEN 100 -40
0 46 -261234 -66577 0;
#X msg 345 251 1 400;
#X connect 1 0 6 0;
#X connect 2 0 20 0;
#X connect 4 0 17 0;
#X connect 5 0 8 1;
#X connect 5 0 4 1;
#X connect 6 0 48 0;
#X connect 6 0 21 0;
#X connect 6 1 7 0;
#X connect 6 1 23 0;
#X connect 7 0 5 0;
#X connect 8 0 18 0;
#X connect 9 0 4 0;
#X connect 10 0 9 0;
#X connect 11 0 8 0;
#X connect 12 0 11 0;
#X connect 13 0 10 0;
#X connect 14 0 12 0;
#X connect 15 0 46 0;
#X connect 16 0 1 0;
#X connect 19 0 26 0;
#X connect 20 0 1 0;
#X connect 21 0 24 0;
#X connect 22 0 24 0;
#X connect 23 0 22 0;
#X connect 25 0 22 0;
#X connect 26 0 21 0;
#X connect 26 1 22 0;
#X connect 37 0 40 0;
#X connect 37 0 43 0;
#X connect 37 0 43 1;
#X connect 38 0 41 0;
#X connect 39 0 42 0;
#X connect 40 0 13 0;
#X connect 40 0 14 0;
#X connect 41 0 45 0;
#X connect 42 0 44 0;
#X connect 43 0 13 0;
#X connect 43 1 14 0;
#X connect 43 2 13 0;
#X connect 43 2 14 0;
#X connect 43 3 13 0;
#X connect 43 3 14 0;
#X connect 44 0 43 3;
#X connect 45 0 40 1;
#X connect 46 0 27 0;
#X connect 46 1 28 0;
#X connect 46 2 29 0;
#X connect 46 3 30 0;
#X connect 46 4 31 0;
#X connect 46 5 32 0;
#X connect 46 6 35 0;
#X connect 46 7 33 0;
#X connect 46 8 34 0;
#X connect 46 9 36 0;
#X connect 46 10 36 1;
#X connect 46 11 36 2;
#X connect 46 12 36 3;
#X connect 46 13 36 4;
#X connect 46 14 36 5;
#X connect 46 15 36 6;
#X connect 46 16 36 7;
#X connect 48 0 5 0;
