#N canvas 283 343 341 421 10;
#X obj -27 291 outlet~;
#X obj -28 -23 inlet;
#N canvas 706 189 450 300 scale 0;
#X obj 110 59 sel 0 1 2 3 4 5 6 7 8 9 10;
#X msg 109 116 0;
#X msg 171 116 3;
#X msg 140 116 2;
#X msg 202 116 5;
#X msg 229 117 7;
#X msg 260 117 8;
#X msg 291 117 11;
#X obj 111 16 inlet;
#X obj 288 16 inlet;
#X obj 284 158 * 12;
#X obj 269 193 +;
#X obj 271 257 outlet;
#X connect 0 1 1 0;
#X connect 0 2 3 0;
#X connect 0 3 2 0;
#X connect 0 4 4 0;
#X connect 0 5 5 0;
#X connect 0 6 6 0;
#X connect 0 7 7 0;
#X connect 1 0 11 0;
#X connect 2 0 11 0;
#X connect 3 0 11 0;
#X connect 4 0 11 0;
#X connect 5 0 11 0;
#X connect 6 0 11 0;
#X connect 7 0 11 0;
#X connect 8 0 0 0;
#X connect 9 0 10 0;
#X connect 10 0 11 1;
#X connect 11 0 12 0;
#X restore -28 -1 pd scale;
#X obj 17 -23 inlet;
#X obj 24 290 outlet~;
#N canvas 489 53 655 444 beating_overtones 1;
#X obj 86 252 +~;
#X obj 86 151 +~;
#X obj 160 151 +~;
#X obj 233 145 +~;
#X obj 86 224 +~;
#X obj 50 360 +~;
#X obj 48 99 osc~;
#X obj 51 404 outlet~;
#X obj 47 29 mtof;
#X obj 86 173 *~;
#X obj 160 174 *~;
#X obj 233 168 *~;
#X obj 86 285 +~;
#X obj 306 142 +~;
#X obj 306 165 *~;
#X obj 85 314 +~;
#X obj 381 143 +~;
#X obj 381 166 *~;
#X obj 85 76 * 2;
#X obj 160 75 * 3;
#X obj 233 72 * 4;
#X obj 306 68 * 5;
#X obj 381 67 * 6;
#X obj 306 92 osc~;
#X obj 233 95 osc~;
#X obj 160 98 osc~;
#X obj 85 100 osc~;
#X obj 381 93 osc~;
#X obj 120 93 +;
#X obj 101 124 osc~;
#X obj 175 125 osc~;
#X obj 197 92 +;
#X obj 271 89 +;
#X obj 346 85 +;
#X obj 420 84 +;
#X obj 248 118 osc~;
#X obj 321 115 osc~;
#X obj 396 116 osc~;
#X obj 46 6 inlet;
#N canvas 121 249 450 300 dist1 0;
#X obj 85 51 moses 0.2;
#X obj 146 51 moses 0.4;
#X obj 211 51 moses 0.6;
#X obj 272 51 moses 0.8;
#X msg 90 80 0;
#X msg 126 80 1;
#X msg 158 81 2;
#X msg 190 80 3;
#X msg 227 80 4;
#X floatatom 18 18 5 0 0 0 - - -;
#X obj 127 115 change;
#X obj 42 236 line~;
#X obj 42 256 outlet~;
#X obj 136 237 line~;
#X obj 136 257 outlet~;
#X obj 215 237 line~;
#X obj 215 257 outlet~;
#X obj 284 236 line~;
#X obj 284 256 outlet~;
#X obj 348 237 line~;
#X obj 348 257 outlet~;
#X msg 44 180 0 5;
#X msg 136 183 0 5;
#X msg 216 179 0 5;
#X msg 283 176 0 5;
#X msg 347 179 0 5;
#X obj 125 139 sel 0 1 2 3 4;
#X obj 84 0 inlet;
#X msg 42 204 0.2 50;
#X msg 120 205 0.3 50;
#X msg 215 205 0.4 50;
#X msg 284 204 0.5 50;
#X msg 348 204 0.6 50;
#X connect 0 0 4 0;
#X connect 0 1 1 0;
#X connect 1 0 5 0;
#X connect 1 1 2 0;
#X connect 2 0 6 0;
#X connect 2 1 3 0;
#X connect 3 0 7 0;
#X connect 3 1 8 0;
#X connect 4 0 10 0;
#X connect 5 0 10 0;
#X connect 6 0 10 0;
#X connect 7 0 10 0;
#X connect 8 0 10 0;
#X connect 9 0 0 0;
#X connect 10 0 26 0;
#X connect 11 0 12 0;
#X connect 13 0 14 0;
#X connect 15 0 16 0;
#X connect 17 0 18 0;
#X connect 19 0 20 0;
#X connect 21 0 11 0;
#X connect 22 0 13 0;
#X connect 23 0 15 0;
#X connect 24 0 17 0;
#X connect 25 0 19 0;
#X connect 26 0 28 0;
#X connect 26 0 22 0;
#X connect 26 0 23 0;
#X connect 26 0 24 0;
#X connect 26 0 25 0;
#X connect 26 1 29 0;
#X connect 26 1 23 0;
#X connect 26 1 24 0;
#X connect 26 1 25 0;
#X connect 26 2 30 0;
#X connect 26 2 24 0;
#X connect 26 2 25 0;
#X connect 26 3 31 0;
#X connect 26 3 25 0;
#X connect 26 4 32 0;
#X connect 27 0 0 0;
#X connect 28 0 11 0;
#X connect 29 0 13 0;
#X connect 30 0 15 0;
#X connect 31 0 17 0;
#X connect 32 0 19 0;
#X restore 127 23 pd dist1;
#N canvas 0 22 480 185 dist2 1;
#X obj 174 58 inlet;
#X obj 177 117 outlet;
#X obj 184 87 sopiscale 0 10 0 1;
#X connect 0 0 2 0;
#X connect 2 0 1 0;
#X restore 213 24 pd dist2;
#X obj 127 1 inlet;
#X obj 219 3 inlet;
#X floatatom 6 12 5 0 0 0 - - -;
#X floatatom 92 7 5 0 0 0 - - -;
#X floatatom 182 4 5 0 0 0 - - -;
#X obj 117 71 t b f;
#X obj 195 71 t b f;
#X obj 261 69 t b f;
#X obj 339 62 t b f;
#X obj 418 60 t b f;
#X floatatom 291 19 5 0 0 0 - - -;
#X floatatom 92 26 5 0 0 0 - - -;
#X connect 0 0 12 0;
#X connect 1 0 9 0;
#X connect 2 0 10 0;
#X connect 3 0 11 0;
#X connect 4 0 0 0;
#X connect 5 0 7 0;
#X connect 6 0 5 0;
#X connect 8 0 6 0;
#X connect 8 0 18 0;
#X connect 8 0 20 0;
#X connect 8 0 21 0;
#X connect 8 0 22 0;
#X connect 8 0 19 0;
#X connect 9 0 4 0;
#X connect 10 0 4 1;
#X connect 11 0 0 1;
#X connect 12 0 15 0;
#X connect 13 0 14 0;
#X connect 14 0 12 1;
#X connect 15 0 5 1;
#X connect 16 0 17 0;
#X connect 17 0 15 1;
#X connect 18 0 26 0;
#X connect 18 0 28 0;
#X connect 19 0 25 0;
#X connect 19 0 31 0;
#X connect 20 0 24 0;
#X connect 20 0 32 0;
#X connect 21 0 23 0;
#X connect 21 0 33 0;
#X connect 22 0 27 0;
#X connect 22 0 34 0;
#X connect 23 0 13 0;
#X connect 24 0 3 0;
#X connect 25 0 2 0;
#X connect 26 0 1 0;
#X connect 27 0 16 0;
#X connect 28 0 29 0;
#X connect 29 0 1 1;
#X connect 30 0 2 1;
#X connect 31 0 30 0;
#X connect 32 0 35 0;
#X connect 33 0 36 0;
#X connect 34 0 37 0;
#X connect 35 0 3 1;
#X connect 36 0 13 1;
#X connect 37 0 16 1;
#X connect 38 0 8 0;
#X connect 39 0 9 1;
#X connect 39 1 10 1;
#X connect 39 2 11 1;
#X connect 39 3 14 1;
#X connect 39 4 17 1;
#X connect 40 0 46 0;
#X connect 40 0 47 0;
#X connect 40 0 48 0;
#X connect 40 0 49 0;
#X connect 40 0 50 0;
#X connect 41 0 39 0;
#X connect 41 0 52 0;
#X connect 42 0 40 0;
#X connect 42 0 51 0;
#X connect 43 0 8 0;
#X connect 44 0 39 0;
#X connect 45 0 40 0;
#X connect 46 0 28 0;
#X connect 46 1 28 1;
#X connect 47 0 31 0;
#X connect 47 1 31 1;
#X connect 48 0 32 0;
#X connect 48 1 32 1;
#X connect 49 0 33 0;
#X connect 49 1 33 1;
#X connect 50 0 34 0;
#X connect 50 1 34 1;
#X restore -28 118 pd beating_overtones;
#X obj 56 -24 inlet dist1;
#X obj 135 -21 inlet dist2;
#N canvas 29 160 639 425 exponential 0;
#X obj 35 222 exponential_curve;
#X obj 36 162 inlet;
#X obj 34 259 outlet;
#X obj 134 159 loadbang;
#X msg 134 185 0.18367;
#X connect 0 0 2 0;
#X connect 1 0 0 0;
#X connect 3 0 4 0;
#X connect 4 0 0 1;
#X restore 56 49 pd exponential;
#N canvas 384 159 231 246 exponential 0;
#X floatatom 28 152 8 0 0 0 - - -;
#X obj 28 81 exponential_curve;
#X obj 28 43 inlet;
#X obj 29 182 outlet;
#X obj 125 32 loadbang;
#X msg 127 56 0.18367;
#X connect 0 0 3 0;
#X connect 1 0 0 0;
#X connect 2 0 1 0;
#X connect 4 0 5 0;
#X connect 5 0 1 1;
#X restore 134 11 pd exponential;
#X connect 1 0 2 0;
#X connect 2 0 5 0;
#X connect 3 0 2 1;
#X connect 5 0 0 0;
#X connect 5 0 4 0;
#X connect 6 0 8 0;
#X connect 7 0 9 0;
#X connect 8 0 5 1;
#X connect 9 0 5 2;
