#N canvas 59 73 413 496 10;
#X floatatom 166 -98 5 0 0 2 Q - -;
#X obj -129 64 c_cpfade;
#X obj -129 91 outlet~;
#X obj -132 -37 inlet~;
#X obj -10 -172 moses 124;
#X obj 50 -95 - 124;
#X obj 50 -65 / 50;
#X obj -129 40 *~ 0.7;
#X floatatom -10 -135 5 0 0 0 - - -;
#X obj -10 -116 mtof;
#X floatatom -10 -94 5 0 0 0 - - -;
#X obj -10 -196 inlet;
#X obj 170 -283 inlet;
#X obj -129 6 e_lop2;
#X obj 86 -228 loadbang;
#X msg 123 -203 26;
#X msg 75 -205 100;
#X connect 0 0 13 2;
#X connect 1 0 2 0;
#X connect 3 0 1 1;
#X connect 3 0 13 0;
#X connect 4 0 8 0;
#X connect 4 1 5 0;
#X connect 5 0 6 0;
#X connect 6 0 1 2;
#X connect 7 0 1 0;
#X connect 8 0 9 0;
#X connect 9 0 10 0;
#X connect 10 0 13 1;
#X connect 11 0 4 0;
#X connect 12 0 0 0;
#X connect 13 0 7 0;
#X connect 14 0 16 0;
#X connect 14 0 15 0;
#X connect 15 0 0 0;
#X connect 16 0 4 0;
