#N canvas 729 226 482 446 10;
#X obj 65 5 inlet;
#X floatatom 59 80 5 0 0 0 playpos - -;
#X floatatom 108 92 5 0 0 0 attack - -;
#X floatatom 128 69 5 0 0 2 sustain - -;
#X floatatom 149 97 5 0 0 2 release - -;
#X floatatom 170 116 5 0 0 1 speed - -;
#X obj 143 159 cnv 30 120 180 empty empty play_sample 40 12 0 14 -233017
-66577 0;
#X obj 285 158 cnv 15 120 180 empty empty play_env 20 12 0 14 -233017
-66577 0;
#X obj 148 320 *~;
#X obj 148 269 vline~;
#X obj 148 246 pack 0 0;
#X obj 148 221 * 44.1;
#X obj 109 119 +;
#X obj 109 143 +;
#X obj 62 162 t a a;
#X obj 148 200 +;
#X obj 163 170 *;
#X obj 65 215 * 44.1;
#X text 32 237 ms to sample;
#X text 192 220 ms to sample;
#X obj 299 242 vline~;
#X obj 295 204 pack 1 0;
#X obj 357 204 pack 0 0 0;
#X obj 148 363 outlet~;
#X obj 299 266 *~ \$3;
#X obj 298 289 tabread4~ \$2;
#X obj 148 295 tabread4~ \$1;
#X obj 65 33 unpack 0 0 0 0 0;
#X obj 47 56 t f b b;
#X connect 0 0 27 0;
#X connect 1 0 14 0;
#X connect 2 0 12 0;
#X connect 2 0 21 1;
#X connect 3 0 12 1;
#X connect 3 0 22 2;
#X connect 4 0 13 1;
#X connect 4 0 22 1;
#X connect 5 0 16 1;
#X connect 8 0 23 0;
#X connect 9 0 26 0;
#X connect 10 0 9 0;
#X connect 11 0 10 0;
#X connect 12 0 13 0;
#X connect 13 0 10 1;
#X connect 13 0 16 0;
#X connect 14 0 15 0;
#X connect 14 1 17 0;
#X connect 15 0 11 0;
#X connect 16 0 15 1;
#X connect 17 0 9 0;
#X connect 20 0 24 0;
#X connect 21 0 20 0;
#X connect 22 0 20 0;
#X connect 24 0 25 0;
#X connect 25 0 8 1;
#X connect 26 0 8 0;
#X connect 27 0 28 0;
#X connect 27 1 2 0;
#X connect 27 2 3 0;
#X connect 27 3 4 0;
#X connect 27 4 5 0;
#X connect 28 0 1 0;
#X connect 28 1 22 0;
#X connect 28 2 21 0;
