#N canvas 2 157 1020 436 10;
#X obj 89 84 *~;
#X obj 115 84 *~;
#X obj 141 84 *~;
#X obj 167 84 *~;
#X obj 193 84 *~;
#X obj 228 12 sig~;
#X floatatom 225 -232 5 0 0 0 - - -;
#X obj 225 -253 inlet;
#X obj 88 -187 catch~ vout2;
#X obj 6 -188 catch~ vout1;
#X obj 169 -187 catch~ vout3;
#X obj 249 -186 catch~ vout4;
#X obj 330 -187 catch~ vout5;
#X obj 412 -185 catch~ vout6;
#X obj 222 84 *~;
#X obj 493 -184 catch~ vout7;
#X obj 578 -183 catch~ vout8;
#X obj 258 86 *~;
#X obj 293 89 *~;
#X obj 101 134 dac~ 1 2 3 4 5 6 7 8;
#X text 333 81 Vbap is set for 6 speakers multi-channel set up. Please
check the Vbap documentation to define a different set up with different
number of speakers.;
#X connect 0 0 19 0;
#X connect 1 0 19 1;
#X connect 2 0 19 2;
#X connect 3 0 19 3;
#X connect 4 0 19 4;
#X connect 5 0 4 1;
#X connect 5 0 3 1;
#X connect 5 0 2 1;
#X connect 5 0 1 1;
#X connect 5 0 0 1;
#X connect 5 0 14 1;
#X connect 5 0 17 1;
#X connect 5 0 18 1;
#X connect 6 0 5 0;
#X connect 7 0 6 0;
#X connect 8 0 1 0;
#X connect 9 0 0 0;
#X connect 10 0 2 0;
#X connect 11 0 3 0;
#X connect 12 0 4 0;
#X connect 13 0 14 0;
#X connect 14 0 19 5;
#X connect 15 0 17 0;
#X connect 16 0 18 0;
#X connect 17 0 19 6;
#X connect 18 0 19 7;
