#N canvas 16 22 867 430 10;
#X obj 23 183 inlet~;
#X text 70 181 audio in;
#X obj 95 31 inlet;
#X obj 303 25 inlet;
#X obj 303 48 t b f;
#X obj 95 55 t b f;
#X obj 198 121 vbap/vbap 0 0;
#X obj 24 314 *~;
#X obj 124 314 *~;
#X obj 224 314 *~;
#X obj 324 314 *~;
#X obj 424 314 *~;
#X obj 440 294 line~;
#X obj 340 294 line~;
#X obj 240 295 line~;
#X obj 140 294 line~;
#X obj 40 294 line~;
#X text 288 7 spread (0-100);
#N canvas 117 389 540 236 parameters.readme 0;
#X text 37 35 define_loudspeakers <dimensions> <azimuth (elevation)>
<..>;
#X text 37 70 dimensions is 2 or 3 \, followed by list of azimuths
(in 2d) or <azimuth elevation> pairs (in 3d) \, defining the number
and positions of loudspeakers.;
#X text 38 122 azimuth is -180 to 180 \, where -90 is left \, 0 front
\, 90 right and 180 back.;
#X text 73 160 elevation is -90 to 90 \, where -90 is down \, 0 is
not elevated and 90 is up.;
#X restore 579 158 pd parameters.readme;
#X obj 221 27 inlet;
#X text 91 13 azimuth;
#X text 212 8 elevation;
#X obj 220 63 t b f;
#X obj 124 338 throw~ vout2;
#X obj 22 339 throw~ vout1;
#X obj 224 338 throw~ vout3;
#X obj 324 339 throw~ vout4;
#X obj 424 337 throw~ vout5;
#X obj 515 315 *~;
#X obj 531 295 line~;
#X obj 515 338 throw~ vout6;
#X msg 40 269 \$1 1;
#X msg 140 269 \$1 1;
#X msg 240 269 \$1 1;
#X msg 340 269 \$1 1;
#X msg 440 269 \$1 1;
#X msg 531 270 \$1 1;
#X obj 198 147 route 0 1 2 3 4 5 6 7;
#X obj 601 312 *~;
#X obj 617 292 line~;
#X msg 617 267 \$1 1;
#X obj 601 335 throw~ vout7;
#X obj 688 314 *~;
#X obj 704 294 line~;
#X msg 704 269 \$1 1;
#X obj 688 337 throw~ vout8;
#X obj 378 105 vbap/define_loudspeakers 2 -45 0 45 90 135 180 -135
-90;
#X floatatom 381 150 5 0 0 0 - - -;
#X floatatom 443 157 5 0 0 0 - - -;
#X floatatom 501 173 5 0 0 0 - - -;
#X obj 378 72 loadbang;
#X text 447 42 a2D setup for 8 speakers. Please check the Vbap documentation
to define a different set up with different number of speakers.;
#X connect 0 0 7 0;
#X connect 0 0 8 0;
#X connect 0 0 9 0;
#X connect 0 0 10 0;
#X connect 0 0 11 0;
#X connect 0 0 28 0;
#X connect 0 0 38 0;
#X connect 0 0 42 0;
#X connect 2 0 5 0;
#X connect 3 0 4 0;
#X connect 4 0 6 0;
#X connect 4 1 6 3;
#X connect 5 0 6 0;
#X connect 5 1 6 1;
#X connect 6 0 37 0;
#X connect 6 1 49 0;
#X connect 6 2 48 0;
#X connect 6 3 47 0;
#X connect 7 0 24 0;
#X connect 8 0 23 0;
#X connect 9 0 25 0;
#X connect 10 0 26 0;
#X connect 11 0 27 0;
#X connect 12 0 11 1;
#X connect 13 0 10 1;
#X connect 14 0 9 1;
#X connect 15 0 8 1;
#X connect 16 0 7 1;
#X connect 19 0 22 0;
#X connect 22 0 6 0;
#X connect 22 1 6 2;
#X connect 28 0 30 0;
#X connect 29 0 28 1;
#X connect 31 0 16 0;
#X connect 32 0 15 0;
#X connect 33 0 14 0;
#X connect 34 0 13 0;
#X connect 35 0 12 0;
#X connect 36 0 29 0;
#X connect 37 0 31 0;
#X connect 37 1 32 0;
#X connect 37 2 33 0;
#X connect 37 3 34 0;
#X connect 37 4 35 0;
#X connect 37 5 36 0;
#X connect 37 6 40 0;
#X connect 37 7 44 0;
#X connect 38 0 41 0;
#X connect 39 0 38 1;
#X connect 40 0 39 0;
#X connect 42 0 45 0;
#X connect 43 0 42 1;
#X connect 44 0 43 0;
#X connect 46 0 6 0;
#X connect 50 0 46 0;
