#N canvas 11 22 1243 665 10;
#X declare -path SOPI;
#X declare -path INSTR;
#X obj 17 99 cnv 15 1200 60 empty empty empty 20 12 0 14 -233017 -66577
0;
#X obj 97 133 r accelerometerX;
#X obj 200 133 r accelerometerY;
#X obj 303 133 r accelerometerZ;
#X obj 820 132 r touchPositionX;
#X obj 924 132 r touchPositionY;
#X obj 1064 132 r screenIsBeingTouched;
#X obj 1064 257 tgl 40 0 empty empty empty 17 7 0 10 -262144 -1 -1
0 1;
#X obj 1074 214 loadbang;
#X msg 1074 235 0;
#X obj 21 515 cnv 15 1200 60 empty empty empty 20 12 0 14 -233017 -66577
0;
#X obj 820 389 dac~;
#X obj 988 529 s vibrate;
#X obj 457 133 r gyroscopeX;
#X obj 557 134 r gyroscopeY;
#X obj 663 133 r gyroscopeZ;
#X obj 20 504 cnv 15 1200 10 empty empty OUTPUTS 560 120 0 46 -204786
-66577 0;
#X obj 17 160 cnv 15 1200 10 empty empty INPUTS 560 -120 0 46 -261234
-66577 0;
#X obj 807 368 *~;
#N canvas 575 238 629 569 4ph 0;
#N canvas 295 266 790 470 4pointWeighted 0;
#X obj 8 -113 +;
#X obj 51 -112 f;
#X obj -2 -17 /;
#X obj -2 -61 t b f;
#X obj -2 -86 f;
#X obj -21 56 *;
#X obj -21 31 unpack f f f f;
#X obj 9 56 *;
#X obj 39 56 *;
#X obj 69 56 *;
#X msg 69 -142 0;
#X obj -22 -197 t b b b b;
#X floatatom 149 -157 5 0 0 0 - weight-x1 -;
#X floatatom 233 22 5 0 0 0 - - -;
#N canvas 492 473 214 209 tabadappnt 0;
#X obj 24 3 inlet;
#X obj 24 28 t b b b b;
#X obj 12 73 tabread adappnt;
#X obj 39 95 tabread adappnt;
#X obj 73 112 tabread adappnt;
#X obj 99 128 tabread adappnt;
#X msg 12 51 0;
#X msg 40 51 1;
#X msg 68 53 2;
#X msg 96 54 3;
#X obj 30 152 pack 0 0 0 0;
#X obj 31 186 outlet;
#X connect 0 0 1 0;
#X connect 1 0 6 0;
#X connect 1 1 7 0;
#X connect 1 2 8 0;
#X connect 1 3 9 0;
#X connect 2 0 10 0;
#X connect 3 0 10 1;
#X connect 4 0 10 2;
#X connect 5 0 10 3;
#X connect 6 0 2 0;
#X connect 7 0 3 0;
#X connect 8 0 4 0;
#X connect 9 0 5 0;
#X connect 10 0 11 0;
#X restore 12 -167 pd tabadappnt;
#N canvas 502 394 214 209 tabadappnt 0;
#X obj 24 3 inlet;
#X obj 24 28 t b b b b;
#X obj 12 73 tabread adappnt;
#X obj 39 95 tabread adappnt;
#X obj 73 112 tabread adappnt;
#X obj 99 128 tabread adappnt;
#X msg 12 51 0;
#X msg 40 51 1;
#X msg 68 53 2;
#X msg 96 54 3;
#X obj 30 152 pack 0 0 0 0;
#X obj 31 186 outlet;
#X connect 0 0 1 0;
#X connect 1 0 6 0;
#X connect 1 1 7 0;
#X connect 1 2 8 0;
#X connect 1 3 9 0;
#X connect 2 0 10 0;
#X connect 3 0 10 1;
#X connect 4 0 10 2;
#X connect 5 0 10 3;
#X connect 6 0 2 0;
#X connect 7 0 3 0;
#X connect 8 0 4 0;
#X connect 9 0 5 0;
#X connect 10 0 11 0;
#X restore -21 10 pd tabadappnt;
#X floatatom 320 -146 5 0 0 0 - weight-x2 -;
#X floatatom 387 -139 5 0 0 0 - weight-y2 -;
#X floatatom 462 -151 5 0 0 0 - weight-x3 -;
#X floatatom 572 -135 5 0 0 0 - weight-x4 -;
#X floatatom 697 -128 5 0 0 0 - weight-y4 -;
#X obj -21 79 s \$0-wth1;
#X obj 13 100 s \$0-wth2;
#X obj 39 120 s \$0-wth3;
#X obj 69 77 s \$0-wth4;
#X obj -22 -221 r \$0-weigh;
#N canvas 420 370 705 372 vandistcheck 0;
#X obj 225 108 outlet;
#X obj 136 -32 inlet;
#X obj 192 -31 inlet;
#X obj 275 -33 inlet;
#X obj 353 -31 inlet;
#X obj 304 157 t b f;
#X obj 259 57 f;
#X obj 286 58 f;
#X obj 310 58 f;
#X obj 338 59 f;
#X obj 261 31 sel 0 1 2 3;
#X obj 193 34 sel 10;
#N canvas 0 22 450 300 4input 0;
#X obj 29 8 inlet;
#X obj 93 12 inlet;
#X obj 150 19 inlet;
#X obj 234 18 inlet;
#X obj 148 241 outlet;
#X obj 44 57 <;
#X obj 44 129 sel 0 1;
#X msg 45 159 10;
#X obj 86 56 <;
#X obj 147 59 <;
#X obj 87 94 f;
#X obj 109 129 sel 0 1;
#X obj 155 90 f;
#X msg 111 160 10;
#X obj 166 132 sel 0 1;
#X msg 168 163 10;
#X msg 199 160 0;
#X connect 0 0 5 0;
#X connect 0 0 8 0;
#X connect 0 0 9 0;
#X connect 1 0 5 1;
#X connect 2 0 8 1;
#X connect 3 0 9 1;
#X connect 5 0 6 0;
#X connect 6 0 7 0;
#X connect 6 1 10 0;
#X connect 7 0 4 0;
#X connect 8 0 10 1;
#X connect 9 0 12 1;
#X connect 10 0 11 0;
#X connect 11 0 13 0;
#X connect 11 1 12 0;
#X connect 12 0 14 0;
#X connect 13 0 4 0;
#X connect 14 0 15 0;
#X connect 14 1 16 0;
#X connect 15 0 4 0;
#X connect 16 0 4 0;
#X restore 137 0 pd 4input;
#N canvas 10 375 450 300 4input 0;
#X obj 29 8 inlet;
#X obj 93 12 inlet;
#X obj 150 19 inlet;
#X obj 234 18 inlet;
#X obj 148 241 outlet;
#X obj 44 57 <;
#X obj 44 129 sel 0 1;
#X msg 45 159 10;
#X obj 86 56 <;
#X obj 147 59 <;
#X obj 87 94 f;
#X obj 109 129 sel 0 1;
#X obj 155 90 f;
#X msg 111 160 10;
#X obj 166 132 sel 0 1;
#X msg 168 163 10;
#X msg 199 160 1;
#X connect 0 0 5 0;
#X connect 0 0 8 0;
#X connect 0 0 9 0;
#X connect 1 0 5 1;
#X connect 2 0 8 1;
#X connect 3 0 9 1;
#X connect 5 0 6 0;
#X connect 6 0 7 0;
#X connect 6 1 10 0;
#X connect 7 0 4 0;
#X connect 8 0 10 1;
#X connect 9 0 12 1;
#X connect 10 0 11 0;
#X connect 11 0 13 0;
#X connect 11 1 12 0;
#X connect 12 0 14 0;
#X connect 13 0 4 0;
#X connect 14 0 15 0;
#X connect 14 1 16 0;
#X connect 15 0 4 0;
#X connect 16 0 4 0;
#X restore 198 0 pd 4input;
#N canvas 0 22 450 300 4input 0;
#X obj 29 8 inlet;
#X obj 93 12 inlet;
#X obj 150 19 inlet;
#X obj 234 18 inlet;
#X obj 148 241 outlet;
#X obj 44 57 <;
#X obj 44 129 sel 0 1;
#X msg 45 159 10;
#X obj 86 56 <;
#X obj 147 59 <;
#X obj 87 94 f;
#X obj 109 129 sel 0 1;
#X obj 155 90 f;
#X msg 111 160 10;
#X obj 166 132 sel 0 1;
#X msg 168 163 10;
#X msg 190 162 2;
#X connect 0 0 5 0;
#X connect 0 0 8 0;
#X connect 0 0 9 0;
#X connect 1 0 5 1;
#X connect 2 0 8 1;
#X connect 3 0 9 1;
#X connect 5 0 6 0;
#X connect 6 0 7 0;
#X connect 6 1 10 0;
#X connect 7 0 4 0;
#X connect 8 0 10 1;
#X connect 9 0 12 1;
#X connect 10 0 11 0;
#X connect 11 0 13 0;
#X connect 11 1 12 0;
#X connect 12 0 14 0;
#X connect 13 0 4 0;
#X connect 14 0 15 0;
#X connect 14 1 16 0;
#X connect 15 0 4 0;
#X connect 16 0 4 0;
#X restore 259 1 pd 4input;
#N canvas 0 22 450 300 4input 0;
#X obj 29 8 inlet;
#X obj 93 12 inlet;
#X obj 150 19 inlet;
#X obj 234 18 inlet;
#X obj 148 241 outlet;
#X obj 44 57 <;
#X obj 44 129 sel 0 1;
#X msg 45 159 10;
#X obj 86 56 <;
#X obj 147 59 <;
#X obj 87 94 f;
#X obj 109 129 sel 0 1;
#X obj 155 90 f;
#X msg 111 160 10;
#X obj 166 132 sel 0 1;
#X msg 168 163 10;
#X msg 199 160 3;
#X connect 0 0 5 0;
#X connect 0 0 8 0;
#X connect 0 0 9 0;
#X connect 1 0 5 1;
#X connect 2 0 8 1;
#X connect 3 0 9 1;
#X connect 5 0 6 0;
#X connect 6 0 7 0;
#X connect 6 1 10 0;
#X connect 7 0 4 0;
#X connect 8 0 10 1;
#X connect 9 0 12 1;
#X connect 10 0 11 0;
#X connect 11 0 13 0;
#X connect 11 1 12 0;
#X connect 12 0 14 0;
#X connect 13 0 4 0;
#X connect 14 0 15 0;
#X connect 14 1 16 0;
#X connect 15 0 4 0;
#X connect 16 0 4 0;
#X restore 323 -2 pd 4input;
#X obj 301 136 abs;
#X obj 300 114 - 1;
#X obj 41 191 - 1.29;
#X obj 40 218 abs;
#X obj 42 242 t b f;
#X obj 70 268 tabwrite adappnt;
#X obj 41 308 s \$0-weigh;
#X obj 42 158 t f b;
#X msg 83 159 0;
#X obj 357 185 - 1.29;
#X obj 356 212 abs;
#X obj 358 236 t b f;
#X obj 386 262 tabwrite adappnt;
#X obj 357 302 s \$0-weigh;
#X obj 358 152 t f b;
#X msg 399 153 1;
#X obj 499 186 - 1.29;
#X obj 498 213 abs;
#X obj 500 237 t b f;
#X obj 528 263 tabwrite adappnt;
#X obj 499 303 s \$0-weigh;
#X obj 500 153 t f b;
#X msg 541 154 2;
#X obj 199 183 - 1.29;
#X obj 198 210 abs;
#X obj 200 234 t b f;
#X obj 228 260 tabwrite adappnt;
#X obj 199 300 s \$0-weigh;
#X obj 200 150 t f b;
#X msg 241 151 3;
#X connect 1 0 6 1;
#X connect 1 0 12 0;
#X connect 1 0 13 1;
#X connect 1 0 14 1;
#X connect 1 0 15 1;
#X connect 1 0 23 0;
#X connect 2 0 7 1;
#X connect 2 0 12 1;
#X connect 2 0 13 0;
#X connect 2 0 14 2;
#X connect 2 0 15 2;
#X connect 2 0 30 0;
#X connect 3 0 8 1;
#X connect 3 0 12 2;
#X connect 3 0 13 2;
#X connect 3 0 14 0;
#X connect 3 0 15 3;
#X connect 3 0 37 0;
#X connect 4 0 9 1;
#X connect 4 0 12 3;
#X connect 4 0 13 3;
#X connect 4 0 14 3;
#X connect 4 0 15 0;
#X connect 4 0 44 0;
#X connect 6 0 17 0;
#X connect 7 0 17 0;
#X connect 8 0 17 0;
#X connect 9 0 17 0;
#X connect 10 0 6 0;
#X connect 10 1 7 0;
#X connect 10 2 8 0;
#X connect 10 3 9 0;
#X connect 11 1 0 0;
#X connect 12 0 10 0;
#X connect 12 0 11 0;
#X connect 13 0 11 0;
#X connect 13 0 10 0;
#X connect 14 0 11 0;
#X connect 14 0 10 0;
#X connect 15 0 11 0;
#X connect 15 0 10 0;
#X connect 16 0 5 0;
#X connect 17 0 16 0;
#X connect 18 0 19 0;
#X connect 19 0 20 0;
#X connect 20 0 22 0;
#X connect 20 1 21 0;
#X connect 23 0 18 0;
#X connect 23 1 24 0;
#X connect 24 0 21 1;
#X connect 25 0 26 0;
#X connect 26 0 27 0;
#X connect 27 0 29 0;
#X connect 27 1 28 0;
#X connect 30 0 25 0;
#X connect 30 1 31 0;
#X connect 31 0 28 1;
#X connect 32 0 33 0;
#X connect 33 0 34 0;
#X connect 34 0 36 0;
#X connect 34 1 35 0;
#X connect 37 0 32 0;
#X connect 37 1 38 0;
#X connect 38 0 35 1;
#X connect 39 0 40 0;
#X connect 40 0 41 0;
#X connect 41 0 43 0;
#X connect 41 1 42 0;
#X connect 44 0 39 0;
#X connect 44 1 45 0;
#X connect 45 0 42 1;
#X restore 233 -4 pd vandistcheck;
#X obj 467 -6 loadbang;
#X obj 38 -198 table adappnt 4;
#X obj 234 -225 inlet;
#X obj 294 -223 inlet;
#N canvas 0 22 698 548 list_drip 0;
#X obj 73 94 t a a;
#X obj 73 251 spigot;
#X obj 112 159 bang;
#X obj 112 178 1;
#X obj 233 159 route bang;
#X obj 193 160 bang;
#X obj 193 179 0;
#X obj 112 124 list split 2;
#X obj 242 389 list split;
#X obj 309 338 list length;
#X obj 309 360 >> 1;
#X obj 73 270 t a a a a;
#X obj 73 456 list split;
#X obj 140 408 list length;
#X obj 140 433 >> 1;
#X obj 41 29 inlet;
#X obj 300 185 outlet;
#X text 83 29 Copyright 2009 by Mathieu Bouchard;
#X obj 41 63 t b a;
#X obj 475 129 outlet;
#X text 530 131 signal end of list;
#X text 391 33 made compatible with [list-drip]: fbar 2009;
#X connect 0 0 1 0;
#X connect 0 1 7 0;
#X connect 1 0 11 0;
#X connect 2 0 3 0;
#X connect 3 0 1 1;
#X connect 4 1 16 0;
#X connect 5 0 6 0;
#X connect 6 0 1 1;
#X connect 7 0 2 0;
#X connect 7 2 4 0;
#X connect 7 2 5 0;
#X connect 8 0 0 0;
#X connect 9 0 10 0;
#X connect 10 0 8 1;
#X connect 11 0 12 0;
#X connect 11 1 13 0;
#X connect 11 2 8 0;
#X connect 11 3 9 0;
#X connect 12 1 0 0;
#X connect 13 0 14 0;
#X connect 14 0 12 1;
#X connect 15 0 18 0;
#X connect 18 0 19 0;
#X connect 18 1 0 0;
#X restore -1 -142 pd list_drip;
#X msg 367 30 \; weight-x1 0.2 \; weight-y1 0.4 \; weight-x2 0.8 \;
weight-y2 0.67 \; weight-x3 0.5 \; weight-y3 0.5 \; weight-x4 0.1 \;
weight-y4 0.4 \;;
#X msg 579 2 \; weight-x1 0.015625 \; weight-y1 0.277 \; weight-x2
0.96875 \; weight-y2 0.875 \; weight-x3 0.277 \; weight-y3 0.84375
\; weight-x4 0.9375 \; weight-y4 0.15625 \;;
#X msg 466 37 \; weight-x1 0 \; weight-y1 0 \; weight-x2 0.9 \; weight-y2
0 \; weight-x3 0 \; weight-y3 0.9 \; weight-x4 0.9 \; weight-y4 0.9
\;;
#X obj 178 -140 -;
#X obj 186 -164 t b f;
#X obj 212 -93 +;
#X obj 247 -132 -;
#X obj 246 -157 t b f;
#X obj 215 -72 sqrt;
#X floatatom 217 -50 8 0 0 0 - - -;
#X obj 176 -118 t f f;
#X obj 180 -96 *;
#X obj 252 -111 t f f;
#X obj 256 -89 *;
#X obj 351 -139 -;
#X obj 359 -163 t b f;
#X obj 385 -92 +;
#X obj 420 -131 -;
#X obj 419 -156 t b f;
#X obj 388 -71 sqrt;
#X floatatom 390 -49 8 0 0 0 - - -;
#X obj 349 -117 t f f;
#X obj 353 -95 *;
#X obj 425 -110 t f f;
#X obj 429 -88 *;
#X obj 472 -136 -;
#X obj 480 -160 t b f;
#X obj 506 -89 +;
#X obj 541 -128 -;
#X obj 540 -153 t b f;
#X obj 509 -68 sqrt;
#X floatatom 511 -46 8 0 0 0 - - -;
#X obj 470 -114 t f f;
#X obj 474 -92 *;
#X obj 546 -107 t f f;
#X obj 550 -85 *;
#X obj 594 -128 -;
#X obj 602 -152 t b f;
#X obj 628 -81 +;
#X obj 663 -120 -;
#X obj 662 -145 t b f;
#X obj 631 -60 sqrt;
#X floatatom 633 -38 8 0 0 0 - - -;
#X obj 592 -106 t f f;
#X obj 596 -84 *;
#X obj 668 -99 t f f;
#X obj 672 -77 *;
#X floatatom 213 -134 5 0 0 0 - weight-y1 -;
#X floatatom 503 -136 5 0 0 0 - weight-y3 -;
#X msg -3 -39 1;
#X connect 0 0 1 0;
#X connect 0 0 4 1;
#X connect 1 0 0 1;
#X connect 2 0 5 1;
#X connect 2 0 7 1;
#X connect 2 0 8 1;
#X connect 2 0 9 1;
#X connect 3 0 81 0;
#X connect 3 1 2 1;
#X connect 4 0 3 0;
#X connect 5 0 21 0;
#X connect 6 0 5 0;
#X connect 6 1 7 0;
#X connect 6 2 8 0;
#X connect 6 3 9 0;
#X connect 7 0 22 0;
#X connect 8 0 23 0;
#X connect 9 0 24 0;
#X connect 10 0 0 1;
#X connect 11 0 15 0;
#X connect 11 1 4 0;
#X connect 11 2 14 0;
#X connect 11 3 10 0;
#X connect 12 0 35 0;
#X connect 14 0 31 0;
#X connect 15 0 6 0;
#X connect 16 0 46 0;
#X connect 17 0 49 0;
#X connect 18 0 57 0;
#X connect 19 0 68 0;
#X connect 20 0 71 0;
#X connect 25 0 11 0;
#X connect 26 0 13 0;
#X connect 27 0 33 0;
#X connect 29 0 36 0;
#X connect 29 0 47 0;
#X connect 29 0 58 0;
#X connect 29 0 69 0;
#X connect 30 0 39 0;
#X connect 30 0 50 0;
#X connect 30 0 61 0;
#X connect 30 0 72 0;
#X connect 31 0 0 0;
#X connect 35 0 42 0;
#X connect 36 0 35 0;
#X connect 36 1 35 1;
#X connect 37 0 40 0;
#X connect 38 0 44 0;
#X connect 39 0 38 0;
#X connect 39 1 38 1;
#X connect 40 0 41 0;
#X connect 40 0 26 0;
#X connect 42 0 43 0;
#X connect 42 1 43 1;
#X connect 43 0 37 0;
#X connect 44 0 45 0;
#X connect 44 1 45 1;
#X connect 45 0 37 1;
#X connect 46 0 53 0;
#X connect 47 0 46 0;
#X connect 47 1 46 1;
#X connect 48 0 51 0;
#X connect 49 0 55 0;
#X connect 50 0 49 0;
#X connect 50 1 49 1;
#X connect 51 0 52 0;
#X connect 51 0 26 1;
#X connect 53 0 54 0;
#X connect 53 1 54 1;
#X connect 54 0 48 0;
#X connect 55 0 56 0;
#X connect 55 1 56 1;
#X connect 56 0 48 1;
#X connect 57 0 64 0;
#X connect 58 0 57 0;
#X connect 58 1 57 1;
#X connect 59 0 62 0;
#X connect 60 0 66 0;
#X connect 61 0 60 0;
#X connect 61 1 60 1;
#X connect 62 0 63 0;
#X connect 62 0 26 2;
#X connect 64 0 65 0;
#X connect 64 1 65 1;
#X connect 65 0 59 0;
#X connect 66 0 67 0;
#X connect 66 1 67 1;
#X connect 67 0 59 1;
#X connect 68 0 75 0;
#X connect 69 0 68 0;
#X connect 69 1 68 1;
#X connect 70 0 73 0;
#X connect 71 0 77 0;
#X connect 72 0 71 0;
#X connect 72 1 71 1;
#X connect 73 0 74 0;
#X connect 73 0 26 3;
#X connect 75 0 76 0;
#X connect 75 1 76 1;
#X connect 76 0 70 0;
#X connect 77 0 78 0;
#X connect 77 1 78 1;
#X connect 78 0 70 1;
#X connect 79 0 38 0;
#X connect 80 0 60 0;
#X connect 81 0 2 0;
#X restore 19 -260 pd 4pointWeighted;
#X obj 99 -235 r \$0-wth2;
#X obj 26 -235 r \$0-wth1;
#X obj 163 -235 r \$0-wth3;
#X obj 24 90 outlet~;
#X obj 97 86 outlet~;
#X obj 43 -149 *~ 0.8;
#X obj 139 -69 *~ 0.8;
#X obj 21 -85 *~ 3;
#X obj 98 -3 *~ 3;
#X obj 21 -280 inlet;
#X obj 118 -285 inlet;
#X obj 229 -237 r \$0-wth4;
#X obj 23 62 *~ 1;
#X obj 97 60 *~ 1;
#X obj 54 -86 *~ 8;
#X obj 94 -85 *~ 8;
#X obj 132 -3 *~ 8;
#X obj 171 -4 *~ 8;
#X obj 49 -116 e_reverb;
#X obj 139 -34 e_reverb;
#X obj 33 -185 SOPIu_sub;
#X obj 296 -75 switch~;
#X obj 299 -125 loadbang;
#X msg 299 -103 0;
#X connect 1 0 21 1;
#X connect 2 0 21 0;
#X connect 3 0 21 2;
#X connect 6 0 8 0;
#X connect 6 0 19 0;
#X connect 7 0 9 0;
#X connect 7 0 20 0;
#X connect 8 0 13 0;
#X connect 9 0 14 0;
#X connect 10 0 0 0;
#X connect 11 0 0 1;
#X connect 12 0 21 3;
#X connect 13 0 4 0;
#X connect 14 0 5 0;
#X connect 15 0 13 0;
#X connect 16 0 13 0;
#X connect 17 0 14 0;
#X connect 18 0 14 0;
#X connect 19 0 15 0;
#X connect 19 1 16 0;
#X connect 20 0 17 0;
#X connect 20 1 18 0;
#X connect 21 0 6 0;
#X connect 21 1 7 0;
#X connect 23 0 24 0;
#X connect 24 0 22 0;
#X restore 834 247 pd 4ph;
#X obj 1064 351 vline~;
#X obj 1166 332 delay 505;
#X obj 1065 309 sel 1 0;
#X msg 1065 331 0.9 400;
#X msg 1117 332 0 1000;
#X obj 844 368 *~;
#X obj 31 127 adc~;
#X obj 72 442 vline~;
#X obj 174 423 delay 505;
#X obj 73 400 sel 1 0;
#X msg 73 422 0.9 400;
#X msg 125 423 0 1000;
#X obj 25 464 *~;
#X obj 61 463 *~;
#X obj 31 542 dac~;
#X obj 1049 427 loadbang;
#X obj 1049 469 metro 1000;
#X obj 1106 418 r vibrationRate;
#X obj 1106 443 * 1000;
#N canvas 0 22 455 419 magnitude 0;
#X obj 97 26 inlet;
#X obj 217 23 inlet;
#X obj 158 27 inlet;
#X obj 96 194 *;
#X obj 158 194 *;
#X obj 217 194 *;
#X obj 96 224 +;
#X obj 96 254 +;
#X obj 96 284 pow 0.5;
#X msg 96 164 \$1 \$1;
#X msg 158 164 \$1 \$1;
#X msg 217 164 \$1 \$1;
#X obj 96 326 outlet;
#X obj 150 285 s magnitude;
#X floatatom 194 326 5 0 0 0 - - -;
#X connect 0 0 9 0;
#X connect 1 0 11 0;
#X connect 2 0 10 0;
#X connect 3 0 6 0;
#X connect 4 0 6 1;
#X connect 5 0 7 1;
#X connect 6 0 7 0;
#X connect 7 0 8 0;
#X connect 8 0 12 0;
#X connect 8 0 13 0;
#X connect 8 0 14 0;
#X connect 9 0 3 0;
#X connect 10 0 4 0;
#X connect 11 0 5 0;
#X restore 165 181 pd magnitude;
#X obj 92 26 declare -path SOPI;
#X obj 89 53 declare -path INSTR;
#N canvas 0 22 590 294 tuning 0;
#X floatatom 15 75 5 0 0 0 - weight-x1 -;
#X floatatom 84 54 5 0 0 0 - weight-x2 -;
#X floatatom 307 78 5 0 0 0 - weight-y2 -;
#X floatatom 99 72 5 0 0 0 - weight-x3 -;
#X floatatom 139 73 5 0 0 0 - weight-x4 -;
#X floatatom 433 48 5 0 0 0 - weight-y4 -;
#X floatatom 375 77 5 0 0 0 - weight-y1 -;
#X floatatom 420 71 5 0 0 0 - weight-y3 -;
#X obj 68 108 -;
#X obj 97 112 -;
#X obj 80 132 -;
#X obj 232 99 +;
#X obj 235 120 sqrt;
#X floatatom 237 142 8 0 0 0 - - sqkey;
#X obj 196 74 t f f;
#X obj 200 96 *;
#X obj 360 103 -;
#X obj 419 111 -;
#X obj 372 127 -;
#X obj 258 75 t f f;
#X obj 262 97 *;
#X obj 15 109 pipe 10;
#X obj 30 132 pipe 10;
#X obj 98 93 pipe 10;
#X obj 307 104 pipe 10;
#X obj 322 127 pipe 10;
#X obj 420 92 pipe 10;
#X connect 0 0 21 0;
#X connect 1 0 8 1;
#X connect 2 0 24 0;
#X connect 3 0 23 0;
#X connect 4 0 9 1;
#X connect 5 0 17 1;
#X connect 6 0 16 1;
#X connect 7 0 26 0;
#X connect 8 0 22 0;
#X connect 9 0 10 1;
#X connect 10 0 14 0;
#X connect 11 0 12 0;
#X connect 12 0 13 0;
#X connect 14 0 15 0;
#X connect 14 1 15 1;
#X connect 15 0 11 0;
#X connect 16 0 25 0;
#X connect 17 0 18 1;
#X connect 18 0 19 0;
#X connect 19 0 20 0;
#X connect 19 1 20 1;
#X connect 20 0 11 1;
#X connect 21 0 8 0;
#X connect 22 0 10 0;
#X connect 23 0 9 0;
#X connect 24 0 16 0;
#X connect 25 0 18 0;
#X connect 26 0 17 0;
#X restore 881 247 pd tuning;
#X obj 987 443 r vibra;
#N canvas 129 91 525 419 waveSH 0;
#X obj 105 96 SOPI_addwaveshape~;
#X floatatom 5 43 5 0 0 0 - - -;
#X msg 84 57 1;
#X floatatom 117 12 5 0 0 0 - - -;
#N canvas 212 317 547 326 acczonePITCH 0;
#X obj 200 -37 r gyroscopeY;
#N canvas 48 182 610 335 mag 0;
#X obj 205 -422 int;
#X obj 205 -399 t f b;
#X obj 205 -511 int;
#X obj 104 -496 >;
#X obj 105 -455 change;
#X obj 145 -541 t f b;
#X obj 104 -566 spigot;
#X obj 152 -608 abs;
#X obj 70 -400 spigot;
#X obj 245 -574 abs;
#X obj 204 -535 +;
#X obj 132 -496 f;
#X obj 286 -406 + 1;
#X obj 245 -385 int;
#X obj 312 -407 sel 1;
#X msg 312 -386 1;
#X obj 286 -386 > 4;
#X obj 205 -443 + 0;
#X obj 245 -596 inlet;
#X obj 75 -626 inlet;
#X obj 205 -490 clip 0 300;
#X obj 191 -336 outlet;
#X obj 383 -629 abs;
#X obj 433 -537 - 1.1;
#X obj 472 -562 spigot;
#X obj 382 -561 moses 1;
#X obj 425 -584 f;
#X obj 383 -585 t b f;
#X obj 432 -561 * 0.9;
#X obj 433 -515 clip 0 5;
#X obj 519 -454 spigot;
#X obj 432 -454 moses 1;
#X obj 475 -477 f;
#X obj 433 -478 t b f;
#X obj 482 -454 * 0.9;
#X obj 520 -477 > 0.001;
#X obj 482 -432 s slowmag;
#X obj 473 -585 > 0.001;
#X obj 243 -336 outlet;
#X obj 245 -552 * 1.3;
#X obj 205 -470 * 150;
#X obj 205 -562 * 1.2;
#X obj 193 -368 spigot;
#X obj 261 -465 > 0.3;
#X obj 243 -363 spigot;
#X obj 152 -587 > 1.1;
#X msg 341 -481 bang;
#X connect 0 0 1 0;
#X connect 1 0 42 0;
#X connect 1 1 13 0;
#X connect 2 0 20 0;
#X connect 3 0 4 0;
#X connect 4 0 8 1;
#X connect 5 0 11 1;
#X connect 5 1 11 0;
#X connect 6 0 5 0;
#X connect 6 0 3 0;
#X connect 7 0 45 0;
#X connect 8 0 41 0;
#X connect 9 0 39 0;
#X connect 9 0 43 0;
#X connect 10 0 2 0;
#X connect 11 0 3 1;
#X connect 12 0 13 1;
#X connect 13 0 12 0;
#X connect 13 0 16 0;
#X connect 13 0 44 0;
#X connect 14 0 15 0;
#X connect 15 0 13 0;
#X connect 16 0 14 0;
#X connect 17 0 0 0;
#X connect 18 0 9 0;
#X connect 19 0 7 0;
#X connect 19 0 6 0;
#X connect 19 0 8 0;
#X connect 19 0 22 0;
#X connect 20 0 40 0;
#X connect 22 0 27 0;
#X connect 23 0 29 0;
#X connect 24 0 26 1;
#X connect 25 1 26 1;
#X connect 26 0 28 0;
#X connect 27 0 26 0;
#X connect 27 1 25 0;
#X connect 28 0 24 0;
#X connect 28 0 25 1;
#X connect 28 0 23 0;
#X connect 28 0 37 0;
#X connect 29 0 33 0;
#X connect 30 0 32 1;
#X connect 31 1 32 1;
#X connect 32 0 34 0;
#X connect 33 0 32 0;
#X connect 33 1 31 0;
#X connect 34 0 30 0;
#X connect 34 0 31 1;
#X connect 34 0 35 0;
#X connect 34 0 36 0;
#X connect 35 0 30 1;
#X connect 37 0 24 1;
#X connect 39 0 10 1;
#X connect 40 0 17 0;
#X connect 41 0 10 0;
#X connect 42 0 21 0;
#X connect 43 0 42 1;
#X connect 43 0 44 1;
#X connect 44 0 38 0;
#X connect 45 0 6 1;
#X connect 46 0 13 0;
#X restore 167 26 pd mag;
#X obj 167 4 r magnitude;
#X obj 167 202 outlet;
#X obj 167 180 line;
#X msg 167 156 \$1 70;
#X obj 211 201 outlet;
#X obj 211 179 line;
#X msg 211 155 \$1 70;
#X obj 185 55 /;
#X obj 185 77 / 5000;
#X obj 296 201 outlet;
#X obj 296 -20 * 1000;
#X obj 296 39 clip 350 900;
#N canvas 717 377 450 300 scale 0;
#X floatatom 187 161 20 0 0 0 - - -;
#X obj 136 177 *;
#X floatatom 231 140 5 0 0 0 - - -;
#X obj 189 139 / 0.31;
#X text 199 24 0.623;
#X text 198 6 0.869;
#X text 142 6 100;
#X text 144 23 10;
#X msg 231 88 900;
#X obj 231 115 - 350;
#X msg 188 91 1;
#X obj 188 115 - 0;
#X obj 136 155 - 350;
#X obj 136 215 + 0;
#X obj 133 89 inlet;
#X obj 140 241 outlet;
#X obj 221 34 loadbang;
#X obj 218 57 t b b;
#X obj 174 57 del 20;
#X connect 0 0 1 1;
#X connect 1 0 13 0;
#X connect 2 0 3 1;
#X connect 3 0 0 0;
#X connect 8 0 9 0;
#X connect 9 0 2 0;
#X connect 10 0 11 0;
#X connect 11 0 3 0;
#X connect 12 0 1 0;
#X connect 13 0 15 0;
#X connect 14 0 12 0;
#X connect 16 0 17 0;
#X connect 17 0 18 0;
#X connect 17 1 8 0;
#X connect 18 0 10 0;
#X restore 296 63 pd scale;
#X obj 296 0 int;
#X obj 296 20 change;
#X obj 253 201 outlet;
#X obj 253 178 / 1.2;
#X connect 0 0 1 1;
#X connect 0 0 12 0;
#X connect 1 0 5 0;
#X connect 1 0 9 0;
#X connect 1 1 9 1;
#X connect 1 1 18 0;
#X connect 2 0 1 0;
#X connect 4 0 3 0;
#X connect 5 0 4 0;
#X connect 7 0 6 0;
#X connect 8 0 7 0;
#X connect 9 0 10 0;
#X connect 10 0 8 0;
#X connect 12 0 15 0;
#X connect 13 0 14 0;
#X connect 14 0 11 0;
#X connect 15 0 16 0;
#X connect 16 0 13 0;
#X connect 18 0 17 0;
#X restore 191 -19 pd acczonePITCH;
#X obj 101 232 e_reverb;
#X obj 98 359 outlet~;
#X obj 281 351 outlet;
#X obj 180 58 r \$0-wth2;
#X obj 150 17 r \$0-wth1;
#X obj 165 38 r \$0-wth3;
#X obj 191 77 r \$0-wth4;
#X connect 0 0 5 0;
#X connect 1 0 0 0;
#X connect 1 0 2 0;
#X connect 2 0 0 1;
#X connect 3 0 0 2;
#X connect 4 0 3 0;
#X connect 4 1 0 7;
#X connect 4 2 1 0;
#X connect 4 3 7 0;
#X connect 5 0 6 0;
#X connect 5 1 6 0;
#X connect 8 0 0 5;
#X connect 9 0 0 3;
#X connect 10 0 0 4;
#X connect 11 0 0 6;
#X restore 767 247 pd waveSH;
#X obj 767 297 SOPIu_xfade~;
#X obj 857 297 SOPIu_xfade~;
#X connect 1 0 39 0;
#X connect 2 0 39 1;
#X connect 3 0 39 2;
#X connect 4 0 19 0;
#X connect 5 0 19 1;
#X connect 6 0 7 0;
#X connect 7 0 22 0;
#X connect 8 0 9 0;
#X connect 9 0 7 0;
#X connect 18 0 11 0;
#X connect 19 0 45 0;
#X connect 19 1 46 0;
#X connect 20 0 18 1;
#X connect 20 0 25 1;
#X connect 22 0 23 0;
#X connect 22 1 24 0;
#X connect 22 1 21 0;
#X connect 23 0 20 0;
#X connect 24 0 20 0;
#X connect 25 0 11 1;
#X connect 26 0 32 0;
#X connect 26 1 33 0;
#X connect 27 0 32 1;
#X connect 27 0 33 1;
#X connect 29 0 30 0;
#X connect 29 1 31 0;
#X connect 29 1 28 0;
#X connect 30 0 27 0;
#X connect 31 0 27 0;
#X connect 32 0 34 0;
#X connect 33 0 34 1;
#X connect 37 0 38 0;
#X connect 38 0 36 1;
#X connect 43 0 12 0;
#X connect 44 0 45 1;
#X connect 44 0 46 1;
#X connect 44 1 45 2;
#X connect 44 1 46 2;
#X connect 45 0 18 0;
#X connect 46 0 25 0;
