#N canvas 732 155 548 536 10;
#X obj 80 -1 inlet;
#X obj 81 446 outlet;
#X obj 80 221 list prepend accelx;
#X obj 114 241 list prepend accely;
#X obj 149 261 list prepend accelz;
#N canvas 785 180 450 300 magnitude 0;
#X obj 199 31 inlet;
#X msg 153 89 \$1 \$1;
#X obj 153 129 *;
#X msg 199 88 \$2 \$2;
#X msg 248 88 \$3 \$3;
#X obj 199 128 *;
#X obj 248 128 *;
#X obj 197 225 sqrt;
#X obj 184 159 +;
#X obj 197 192 +;
#X obj 197 253 outlet;
#X connect 0 0 1 0;
#X connect 0 0 3 0;
#X connect 0 0 4 0;
#X connect 1 0 2 0;
#X connect 2 0 8 0;
#X connect 3 0 5 0;
#X connect 4 0 6 0;
#X connect 5 0 8 1;
#X connect 6 0 9 1;
#X connect 7 0 10 0;
#X connect 8 0 9 0;
#X connect 9 0 7 0;
#X restore 330 127 pd magnitude;
#X obj 330 197 list prepend magnitude;
#X obj 149 196 speedlim 0;
#X obj 114 174 speedlim 0;
#X obj 80 149 speedlim 0;
#X obj 330 172 speedlim 0;
#X obj 137 126 r SPEEDLIM;
#X obj 171 148 r SPEEDLIM;
#X obj 206 172 r SPEEDLIM;
#X obj 387 150 r SPEEDLIM;
#X obj 79 395 list trim;
#X obj 80 354 list prepend;
#X obj 80 99 unpack f f f f;
#X obj 19 454 outlet;
#X connect 0 0 17 0;
#X connect 2 0 16 0;
#X connect 3 0 16 0;
#X connect 4 0 16 0;
#X connect 5 0 10 0;
#X connect 7 0 4 0;
#X connect 8 0 3 0;
#X connect 9 0 2 0;
#X connect 10 0 6 0;
#X connect 11 0 9 1;
#X connect 12 0 8 1;
#X connect 13 0 7 1;
#X connect 14 0 10 1;
#X connect 15 0 1 0;
#X connect 16 0 15 0;
#X connect 17 0 16 1;
#X connect 17 0 18 0;
#X connect 17 1 9 0;
#X connect 17 2 8 0;
#X connect 17 3 7 0;
