#N canvas 214 85 386 489 10;
#X obj 80 -1 inlet;
#X obj 77 447 outlet;
#X obj 80 99 unpack f f f;
#X obj 149 196 speedlim 0;
#X obj 114 174 speedlim 0;
#X obj 80 149 speedlim 0;
#X obj 137 126 r SPEEDLIM;
#X obj 171 148 r SPEEDLIM;
#X obj 206 172 r SPEEDLIM;
#X obj 74 287 list prepend d1;
#X obj 108 307 list prepend d2;
#X obj 189 336 list prepend d3;
#X obj 80 354 list trim;
#X connect 0 0 2 0;
#X connect 2 0 5 0;
#X connect 2 1 4 0;
#X connect 2 2 3 0;
#X connect 3 0 11 0;
#X connect 4 0 10 0;
#X connect 5 0 9 0;
#X connect 6 0 5 1;
#X connect 7 0 4 1;
#X connect 8 0 3 1;
#X connect 9 0 12 0;
#X connect 10 0 12 0;
#X connect 11 0 12 0;
#X connect 12 0 1 0;
