#N canvas 123 32 416 554 10;
#X obj 80 -1 inlet;
#X obj 80 404 outlet;
#X obj 149 196 speedlim 0;
#X obj 114 174 speedlim 0;
#X obj 80 149 speedlim 0;
#X obj 137 126 r SPEEDLIM;
#X obj 171 148 r SPEEDLIM;
#X obj 206 172 r SPEEDLIM;
#X obj 80 221 list prepend gyrox;
#X obj 114 241 list prepend gyroy;
#X obj 149 261 list prepend gyroz;
#X obj 80 99 unpack f f f f;
#X obj 81 380 list trim;
#X obj 80 354 list prepend;
#X connect 0 0 11 0;
#X connect 2 0 10 0;
#X connect 3 0 9 0;
#X connect 4 0 8 0;
#X connect 5 0 4 1;
#X connect 6 0 3 1;
#X connect 7 0 2 1;
#X connect 8 0 13 0;
#X connect 9 0 13 0;
#X connect 10 0 13 0;
#X connect 11 0 13 1;
#X connect 11 1 4 0;
#X connect 11 2 3 0;
#X connect 11 3 2 0;
#X connect 12 0 1 0;
#X connect 13 0 12 0;
