#N canvas 214 85 684 515 10;
#X obj 80 -1 inlet;
#X obj 77 447 outlet;
#X obj 149 196 speedlim 0;
#X obj 119 229 speedlim 0;
#X obj 80 149 speedlim 0;
#X obj 137 126 r SPEEDLIM;
#X obj 171 148 r SPEEDLIM;
#X obj 206 172 r SPEEDLIM;
#N canvas 717 377 450 300 scale 0;
#X floatatom 187 161 20 0 0 0 - - -;
#X obj 136 177 *;
#X floatatom 231 140 5 0 0 0 - - -;
#X obj 189 139 / 0.31;
#X text 199 24 0.623;
#X text 198 6 0.869;
#X text 142 6 100;
#X text 144 23 10;
#X obj 133 89 inlet;
#X obj 136 241 outlet;
#X obj 221 34 loadbang;
#X obj 218 57 t b b;
#X obj 174 57 del 20;
#X obj 188 115 - 0;
#X obj 136 215 + 0;
#X msg 231 88 350;
#X obj 231 115 - 50;
#X obj 136 155 - 50;
#X msg 188 91 1;
#X connect 0 0 1 1;
#X connect 1 0 14 0;
#X connect 2 0 3 1;
#X connect 3 0 0 0;
#X connect 8 0 17 0;
#X connect 10 0 11 0;
#X connect 11 0 12 0;
#X connect 11 1 15 0;
#X connect 12 0 18 0;
#X connect 13 0 3 0;
#X connect 14 0 9 0;
#X connect 15 0 16 0;
#X connect 16 0 2 0;
#X connect 17 0 1 0;
#X connect 18 0 13 0;
#X restore 458 76 pd scale;
#X obj 458 54 clip 50 350;
#X floatatom 464 116 5 0 0 0 - - -;
#X floatatom 464 21 5 0 0 0 - - -;
#X obj 76 399 list trim;
#X obj 288 295 speedlim 0;
#X obj 329 181 speedlim 0;
#X obj 245 208 speedlim 0;
#X obj 297 133 r SPEEDLIM;
#X obj 389 156 r SPEEDLIM;
#X obj 343 264 r SPEEDLIM;
#X obj 99 76 unpack f f f f f f;
#X obj 82 172 list prepend x1;
#X obj 117 251 list prepend y1;
#X obj 149 277 list prepend x2;
#X obj 244 234 list prepend y2;
#X obj 329 203 list prepend x3;
#X obj 285 318 list prepend y3;
#X connect 0 0 19 0;
#X connect 2 0 22 0;
#X connect 3 0 21 0;
#X connect 4 0 20 0;
#X connect 5 0 4 1;
#X connect 6 0 3 1;
#X connect 7 0 2 1;
#X connect 8 0 10 0;
#X connect 9 0 8 0;
#X connect 11 0 9 0;
#X connect 12 0 1 0;
#X connect 13 0 25 0;
#X connect 14 0 24 0;
#X connect 15 0 23 0;
#X connect 16 0 15 1;
#X connect 17 0 14 1;
#X connect 18 0 13 1;
#X connect 19 0 4 0;
#X connect 19 1 3 0;
#X connect 19 2 2 0;
#X connect 19 3 15 0;
#X connect 19 4 14 0;
#X connect 19 5 13 0;
#X connect 20 0 12 0;
#X connect 21 0 12 0;
#X connect 22 0 12 0;
#X connect 23 0 12 0;
#X connect 24 0 12 0;
#X connect 25 0 12 0;
