#N canvas 1155 534 782 522 10;
#X obj 253 -178 inlet;
#X obj 324 -179 inlet;
#X obj 284 148 lop~ 20;
#X obj 222 223 outlet~;
#X obj 222 185 *~;
#X obj 181 -179 inlet~;
#X obj 284 5 vline~;
#X msg 256 -25 0 \$1;
#X obj 256 -51 f;
#X obj 292 -86 t b f;
#X obj 249 -87 / \$1;
#X connect 0 0 9 0;
#X connect 1 0 10 0;
#X connect 2 0 4 1;
#X connect 4 0 3 0;
#X connect 5 0 4 0;
#X connect 6 0 2 0;
#X connect 7 0 6 0;
#X connect 8 0 7 0;
#X connect 9 0 8 0;
#X connect 9 1 6 0;
#X connect 10 0 8 1;
