#N canvas 469 455 458 354 10;
#X obj 8 237 *~;
#X obj 67 236 *~;
#X obj 106 136 hsl 75 20 0 1 0 0 empty empty empty -2 -8 0 10 -262144
-1 -1 7400 1;
#X obj 121 168 sig~;
#X obj 106 207 -~;
#X obj 12 327 outlet~;
#X obj 8 76 inlet~;
#X obj 67 77 inlet~;
#X obj 153 79 inlet;
#X obj 12 307 hip~ 1;
#X obj 224 75 loadbang;
#X obj 224 101 f 0;
#X obj 75 169 sig~ 1;
#X connect 0 0 9 0;
#X connect 1 0 9 0;
#X connect 2 0 3 0;
#X connect 3 0 1 1;
#X connect 3 0 4 1;
#X connect 4 0 0 1;
#X connect 6 0 0 0;
#X connect 7 0 1 0;
#X connect 8 0 2 0;
#X connect 9 0 5 0;
#X connect 10 0 11 0;
#X connect 11 0 2 0;
#X connect 12 0 4 0;
#X coords 0 -1 1 1 85 60 1 100 100;
