#N canvas 567 210 575 443 10;
#X obj 191 -83 inlet;
#X obj 214 171 / 100;
#X obj 255 120 * 12;
#X obj 255 200 *;
#X obj 255 146 - 6;
#X obj 255 171 t b f;
#X obj 255 73 random 1000;
#X obj 255 97 / 1000;
#X obj 255 -35 phasor~;
#X obj 255 0 bonk~;
#X obj 255 25 t b;
#X obj 268 51 bng 15 250 50 0 empty empty empty 17 7 0 10 -262144 -1
-1;
#X obj 241 264 +;
#X obj 255 226 t b f;
#X text 369 219 Possible syn issue at higher freqs need to samplehold
but that is very hard - needs thought;
#X obj 241 288 outlet;
#X connect 0 0 8 0;
#X connect 0 0 1 0;
#X connect 0 0 12 0;
#X connect 1 0 3 0;
#X connect 2 0 4 0;
#X connect 3 0 13 0;
#X connect 4 0 5 0;
#X connect 5 0 3 0;
#X connect 5 1 3 1;
#X connect 6 0 7 0;
#X connect 7 0 2 0;
#X connect 8 0 9 0;
#X connect 9 0 10 0;
#X connect 10 0 11 0;
#X connect 10 0 6 0;
#X connect 12 0 15 0;
#X connect 13 0 12 0;
#X connect 13 1 12 1;
