#N canvas 930 255 601 505 10;
#X text -69 39 End Point;
#X obj -58 94 i;
#X text -69 20 comment;
#X obj -108 164 realtime;
#X obj -103 89 bng 15 250 50 0 empty empty empty 17 7 0 10 -262144
-1 -1;
#X obj -58 138 bng 15 250 50 0 empty empty empty 17 7 0 10 -262144
-1 -1;
#X text 73 106 Distance is always 1 but need to work out directon;
#X obj 43 112 -;
#X text 3 287 Calculates the velocity;
#X obj -85 20 inlet;
#X obj -74 354 outlet;
#X text -44 74 start point;
#X floatatom -39 118 5 0 0 0 - - -;
#X floatatom -85 193 5 0 0 0 - - -;
#X floatatom 4 16 5 0 0 0 - - -;
#X obj -72 274 /;
#X obj -72 296 * 60;
#X floatatom -35 333 5 0 0 0 - - -;
#X obj -72 247 t b f;
#X connect 1 0 7 1;
#X connect 1 0 5 0;
#X connect 1 0 12 0;
#X connect 3 0 13 0;
#X connect 3 0 18 0;
#X connect 4 0 1 0;
#X connect 4 0 3 0;
#X connect 5 0 3 1;
#X connect 7 0 15 0;
#X connect 9 0 4 0;
#X connect 9 0 1 1;
#X connect 9 0 7 0;
#X connect 14 0 4 0;
#X connect 14 0 1 1;
#X connect 14 0 7 0;
#X connect 15 0 16 0;
#X connect 16 0 17 0;
#X connect 16 0 10 0;
#X connect 18 0 15 0;
#X connect 18 1 15 1;
