#N canvas 650 127 416 554 10;
#X obj 80 -1 inlet;
#X obj 80 404 outlet;
#X obj 114 174 speedlim 0;
#X obj 80 149 speedlim 0;
#X obj 137 126 r SPEEDLIM;
#X obj 171 148 r SPEEDLIM;
#X obj 247 166 speedlim 0;
#X obj 304 143 r SPEEDLIM;
#X obj 80 88 unpack f f f f;
#X obj 79 380 list trim;
#X obj 80 354 list prepend;
#X obj 80 221 list prepend touchIO;
#X obj 114 241 list prepend touchx;
#X obj 247 238 list prepend touchy;
#X connect 0 0 8 0;
#X connect 2 0 12 0;
#X connect 3 0 11 0;
#X connect 4 0 3 1;
#X connect 5 0 2 1;
#X connect 6 0 13 0;
#X connect 7 0 6 1;
#X connect 8 0 10 1;
#X connect 8 1 3 0;
#X connect 8 2 2 0;
#X connect 8 3 6 0;
#X connect 9 0 1 0;
#X connect 10 0 9 0;
#X connect 11 0 10 0;
#X connect 12 0 10 0;
#X connect 13 0 10 0;
