#N canvas 156 90 908 651 10;
#X obj 56 5 inlet;
#X obj 57 455 outlet;
#X obj 56 431 list trim;
#X obj 57 405 list prepend;
#X obj 57 139 unpack f f f f f f f f f;
#X obj 58 223 list prepend tune1x;
#X obj 125 270 list prepend tune1y;
#X obj 57 200 speedlim 0;
#X obj 114 177 r SPEEDLIM;
#X obj 125 248 speedlim 0;
#X obj 182 225 r SPEEDLIM;
#X obj 257 220 speedlim 0;
#X obj 314 197 r SPEEDLIM;
#X obj 325 268 speedlim 0;
#X obj 382 245 r SPEEDLIM;
#X obj 438 204 speedlim 0;
#X obj 495 181 r SPEEDLIM;
#X obj 506 252 speedlim 0;
#X obj 563 229 r SPEEDLIM;
#X obj 258 243 list prepend tune2x;
#X obj 325 290 list prepend tune2y;
#X obj 439 227 list prepend tune3x;
#X obj 506 274 list prepend tune3y;
#X obj 630 195 speedlim 0;
#X obj 687 172 r SPEEDLIM;
#X obj 698 243 speedlim 0;
#X obj 755 220 r SPEEDLIM;
#X obj 631 218 list prepend tune4x;
#X obj 698 265 list prepend tune4y;
#X connect 0 0 4 0;
#X connect 2 0 1 0;
#X connect 3 0 2 0;
#X connect 4 0 3 1;
#X connect 4 1 7 0;
#X connect 4 2 9 0;
#X connect 4 3 11 0;
#X connect 4 4 13 0;
#X connect 4 5 15 0;
#X connect 4 6 17 0;
#X connect 4 7 23 0;
#X connect 4 8 25 0;
#X connect 5 0 3 0;
#X connect 6 0 3 0;
#X connect 7 0 5 0;
#X connect 8 0 7 1;
#X connect 9 0 6 0;
#X connect 10 0 9 1;
#X connect 11 0 19 0;
#X connect 12 0 11 1;
#X connect 13 0 20 0;
#X connect 14 0 13 1;
#X connect 15 0 21 0;
#X connect 16 0 15 1;
#X connect 17 0 22 0;
#X connect 18 0 17 1;
#X connect 19 0 3 0;
#X connect 20 0 3 0;
#X connect 21 0 3 0;
#X connect 22 0 3 0;
#X connect 23 0 27 0;
#X connect 24 0 23 1;
#X connect 25 0 28 0;
#X connect 26 0 25 1;
#X connect 27 0 3 0;
#X connect 28 0 3 0;
